<svg width="43" height="48" viewBox="0 0 43 48" fill="none" xmlns="http://www.w3.org/2000/svg">
<path d="M27.206 47.071L27.245 46.938L27.293 46.181L26.738 45.476L23.659 42.385L22.158 40.89L21.833 40.283L20.266 38.955L19.865 38.037L19.76 37.105L19.306 36.15L18.618 35.289L18.15 34.794L14.835 32.159L13.371 31.228L9.642 29.061L4.94299 26.675L0 24.198L0.651001 23.661L1.634 22.464L4.101 18.759L4.26399 18.402L4.605 17.241L4.791 16.846L5.243 16.09L8.744 11.984L9.09599 11.719L9.47 11.513L18.451 8.923L19.484 8.23001L19.727 8L19.9 7.51201L20.024 6.666L19.927 3.636L19.439 0.787003L19.583 0.139999L19.75 0L19.88 0.0270081L20.629 0.531006L21.897 1.71501L23.656 3.04901L23.986 3.38501L24.413 4.01901L24.561 4.401L24.724 4.71701L24.885 4.94901L25.302 5.431L25.529 5.76801L25.607 6.08L25.56 6.38701L25.412 6.63101L25.239 6.867L24.984 7.401L24.919 7.66101L24.89 7.858L24.895 8.03601L24.946 8.304L25.084 8.55901L25.345 8.75601L25.8 8.864L26.601 8.94501L26.969 9.058L27.329 9.252L27.757 9.61301L27.989 9.92L28.17 10.224L28.538 11.037L28.77 11.263L29.082 11.439L29.667 11.502L29.961 11.511L30.589 11.403L31.2 11.234L31.547 11.193L31.931 11.226L33.088 11.59L33.421 11.774L33.658 11.946L34.194 12.863L34.588 13.218L34.898 13.195L35.184 13.02L35.485 12.889L35.976 12.758L36.272 12.835L36.445 12.992L36.536 13.248L36.565 13.37L36.714 13.609L37.314 13.159L37.646 12.799L38 12.654L38.309 12.666L38.554 12.812L38.758 12.964L38.93 13.124L39.49 13.389L40.178 13.597L40.58 13.778L40.866 13.998L40.979 14.26L40.992 14.581L40.918 14.891L40.789 15.171L40.627 15.415L38.936 16.988L38.762 17.22L38.663 17.521L38.669 17.858L38.772 18.218L39.073 18.485L39.474 18.604L39.884 18.792L40.019 19.045L39.99 19.407L39.734 20.209L38.748 21.311L36.402 21.754L35.745 21.983L35.261 22.232L34.925 22.484L34.482 22.895L34.206 23.255L33.942 23.707L33.845 24.067L33.822 24.38L33.928 24.639L34.38 25.381L34.501 25.652L34.526 25.969L34.448 26.276L34.178 27.003L34.332 28.346L34.493 28.569L34.749 28.789L35.04 28.788L35.349 28.74L35.678 28.772L36.056 28.98L36.33 29.337L36.507 29.66L37.003 31.135L37.557 32.28L37.955 32.747L38.349 32.997L39.011 32.935L39.708 32.956L40.558 33.404L41.965 33.706L42.22 33.875L42.478 34.151L42.548 34.48L42.56 34.841L42.532 35.189L42.452 35.5L42.293 35.75L42.066 35.925L41.542 36.151L41.175 36.412L40.215 37.786L39.601 38.269L38.874 38.542L38.36 38.802L38.112 39.057L37.986 39.345L38.046 41.703L37.986 42.151L37.907 42.358L37.727 42.545L37.544 42.629L37.189 42.662L36.395 42.001L33.686 41.224L33.239 41.215L32.993 41.315L32.807 41.431L27.937 46.185L27.206 47.071Z" fill="#D5D6D2"/>
<circle cx="22" cy="35" r="1" fill="#F11E24"/>
</svg>
