<svg width="398" height="77" viewBox="0 0 398 77" fill="none" xmlns="http://www.w3.org/2000/svg">
<g clip-path="url(#clip0_468_16545)">
<path d="M0 0.129859L0.325542 0.0735312C0.49539 0.0453672 19.1928 0.0172032 41.8534 0.00312127C78.3283 -0.0109607 83.1123 0.0172033 83.2963 0.200269C83.4803 0.383335 83.5086 1.28458 83.5086 6.53716C83.5086 9.90275 83.5369 12.7191 83.5794 12.8036C83.6219 12.8881 83.5086 12.9726 83.3388 13.0149C83.1548 13.0571 75.4833 13.0853 49.539 13.0853V74.4827H34.2527L34.1395 74.1729C34.0828 73.9898 34.0545 60.3162 34.0828 43.784C34.1253 18.9715 34.097 13.6908 33.9413 13.5641C33.8139 13.4373 29.8083 13.3669 19.2494 13.2965C11.2666 13.2543 3.73666 13.1839 2.50526 13.1416C1.28801 13.1134 0.21231 13.0571 0.14154 13.0149C0.056616 12.9726 0 10.6632 0 0.129859Z" fill="white"/>
<path fill-rule="evenodd" clip-rule="evenodd" d="M97.4686 15.0713C108.863 15.1135 109.712 15.1276 110.703 15.3811C111.283 15.536 112.274 15.888 112.896 16.1978C113.519 16.4936 114.538 17.1132 115.161 17.5779C115.784 18.0426 116.633 18.7889 117.058 19.2536C117.482 19.7043 118.133 20.521 118.516 21.0702C118.912 21.6053 119.506 22.6051 119.846 23.2811C120.186 23.9711 120.667 25.1117 120.908 25.8158C121.148 26.534 121.474 27.7591 121.63 28.5337C121.771 29.3082 121.941 30.6319 121.983 31.4909C122.026 32.3499 121.983 33.927 121.898 35.0114C121.799 36.0957 121.601 37.4898 121.46 38.1094C121.304 38.729 121.035 39.6725 120.851 40.2217C120.653 40.7709 120.356 41.5172 120.186 41.9115C120.016 42.2917 119.634 43.024 119.337 43.5309C119.039 44.0379 118.445 44.8687 118.034 45.3757C117.624 45.8826 116.845 46.6994 116.293 47.1782C115.741 47.671 114.977 48.2766 114.595 48.5441C114.199 48.7976 113.406 49.2341 112.826 49.5017C112.245 49.7833 111.255 50.1213 110.632 50.2762C109.74 50.4874 108.707 50.5719 105.749 50.6423C103.682 50.6987 101.205 50.7268 100.229 50.7268C99.252 50.7128 96.2655 50.7691 93.5763 50.8536C90.887 50.9381 84.4186 51.0507 79.1816 51.107C73.9588 51.1634 69.6277 51.2619 69.5569 51.3183C69.5003 51.3887 69.4153 57.0637 69.3021 76.4124L51.5388 76.4828V15.0854L68.4246 15.0431C77.6954 15.029 90.7738 15.0431 97.4686 15.0713V15.0713ZM68.9907 28.5477C68.8775 28.8435 68.8492 30.2094 68.9058 33.4623C68.9483 35.9408 69.0332 37.9967 69.104 38.039C69.1606 38.0812 76.2659 38.1094 84.8998 38.1094C100.441 38.1094 100.582 38.1094 101.219 37.8137C101.573 37.6588 102.111 37.3067 102.423 37.0251C102.734 36.7575 103.187 36.1238 103.442 35.631C103.725 35.0677 103.951 34.3073 104.05 33.6032C104.149 32.9554 104.178 32.1105 104.121 31.6317C104.064 31.167 103.866 30.491 103.682 30.1249C103.498 29.7447 103.13 29.2941 102.89 29.111C102.635 28.9279 102.21 28.6745 101.97 28.5477C101.715 28.421 101.064 28.2238 100.512 28.1112C99.6625 27.9281 97.3554 27.9 84.6309 27.914C76.4357 27.914 69.5993 27.9704 69.4437 28.0267C69.288 28.083 69.0898 28.3224 68.9907 28.5477V28.5477Z" fill="white"/>
</g>
<path d="M153.88 49.3679C153.88 50.9946 153.507 52.4879 152.76 53.8479C152.013 55.1812 150.867 56.2612 149.32 57.0879C147.773 57.9146 145.853 58.3279 143.56 58.3279H139.32V68.4079H132.48V40.3279H143.56C145.8 40.3279 147.693 40.7146 149.24 41.4879C150.787 42.2612 151.947 43.3279 152.72 44.6879C153.493 46.0479 153.88 47.6079 153.88 49.3679ZM143.04 52.8879C144.347 52.8879 145.32 52.5812 145.96 51.9679C146.6 51.3546 146.92 50.4879 146.92 49.3679C146.92 48.2479 146.6 47.3812 145.96 46.7679C145.32 46.1546 144.347 45.8479 143.04 45.8479H139.32V52.8879H143.04ZM174.921 63.4479H164.441L162.761 68.4079H155.601L165.761 40.3279H173.681L183.841 68.4079H176.601L174.921 63.4479ZM173.161 58.1679L169.681 47.8879L166.241 58.1679H173.161ZM203.213 68.4079L193.773 56.0079V68.4079H186.933V40.3279H193.773V52.6479L203.133 40.3279H211.173L200.293 54.0879L211.573 68.4079H203.213ZM232.304 63.4479H221.824L220.144 68.4079H212.984L223.144 40.3279H231.064L241.224 68.4079H233.984L232.304 63.4479ZM230.544 58.1679L227.064 47.8879L223.624 58.1679H230.544ZM264.516 40.3279V45.8079H257.076V68.4079H250.236V45.8079H242.796V40.3279H264.516ZM293.069 68.4079H286.229L274.789 51.0879V68.4079H267.949V40.3279H274.789L286.229 57.7279V40.3279H293.069V68.4079ZM315.507 63.4479H305.027L303.347 68.4079H296.187L306.347 40.3279H314.267L324.427 68.4079H317.187L315.507 63.4479ZM313.747 58.1679L310.267 47.8879L306.827 58.1679H313.747ZM359.319 40.3279V68.4079H352.479V51.5679L346.199 68.4079H340.679L334.359 51.5279V68.4079H327.519V40.3279H335.599L343.479 59.7679L351.279 40.3279H359.319ZM370.958 40.3279V57.1279C370.958 58.8079 371.371 60.1012 372.198 61.0079C373.024 61.9146 374.238 62.3679 375.838 62.3679C377.438 62.3679 378.664 61.9146 379.518 61.0079C380.371 60.1012 380.798 58.8079 380.798 57.1279V40.3279H387.638V57.0879C387.638 59.5946 387.104 61.7146 386.038 63.4479C384.971 65.1812 383.531 66.4879 381.718 67.3679C379.931 68.2479 377.931 68.6879 375.718 68.6879C373.504 68.6879 371.518 68.2612 369.758 67.4079C368.024 66.5279 366.651 65.2212 365.638 63.4879C364.624 61.7279 364.118 59.5946 364.118 57.0879V40.3279H370.958Z" fill="white"/>
<path d="M153.412 7.728V12.66H146.716V33H140.56V12.66H133.864V7.728H153.412ZM169.39 33L164.134 23.46H162.658V33H156.502V7.728H166.834C168.826 7.728 170.518 8.076 171.91 8.772C173.326 9.468 174.382 10.428 175.078 11.652C175.774 12.852 176.122 14.196 176.122 15.684C176.122 17.364 175.642 18.864 174.682 20.184C173.746 21.504 172.354 22.44 170.506 22.992L176.338 33H169.39ZM162.658 19.104H166.474C167.602 19.104 168.442 18.828 168.994 18.276C169.57 17.724 169.858 16.944 169.858 15.936C169.858 14.976 169.57 14.22 168.994 13.668C168.442 13.116 167.602 12.84 166.474 12.84H162.658V19.104ZM195.718 28.536H186.286L184.774 33H178.33L187.474 7.728H194.602L203.746 33H197.23L195.718 28.536ZM194.134 23.784L191.002 14.532L187.906 23.784H194.134ZM229.137 33H222.981L212.685 17.412V33H206.529V7.728H212.685L222.981 23.388V7.728H229.137V33ZM242.743 33.252C240.895 33.252 239.239 32.952 237.775 32.352C236.311 31.752 235.135 30.864 234.247 29.688C233.383 28.512 232.927 27.096 232.879 25.44H239.431C239.527 26.376 239.851 27.096 240.403 27.6C240.955 28.08 241.675 28.32 242.563 28.32C243.475 28.32 244.195 28.116 244.723 27.708C245.251 27.276 245.515 26.688 245.515 25.944C245.515 25.32 245.299 24.804 244.867 24.396C244.459 23.988 243.943 23.652 243.319 23.388C242.719 23.124 241.855 22.824 240.727 22.488C239.095 21.984 237.763 21.48 236.731 20.976C235.699 20.472 234.811 19.728 234.067 18.744C233.323 17.76 232.951 16.476 232.951 14.892C232.951 12.54 233.803 10.704 235.507 9.384C237.211 8.04 239.431 7.368 242.167 7.368C244.951 7.368 247.195 8.04 248.899 9.384C250.603 10.704 251.515 12.552 251.635 14.928H244.975C244.927 14.112 244.627 13.476 244.075 13.02C243.523 12.54 242.815 12.3 241.951 12.3C241.207 12.3 240.607 12.504 240.151 12.912C239.695 13.296 239.467 13.86 239.467 14.604C239.467 15.42 239.851 16.056 240.619 16.512C241.387 16.968 242.587 17.46 244.219 17.988C245.851 18.54 247.171 19.068 248.179 19.572C249.211 20.076 250.099 20.808 250.843 21.768C251.587 22.728 251.959 23.964 251.959 25.476C251.959 26.916 251.587 28.224 250.843 29.4C250.123 30.576 249.067 31.512 247.675 32.208C246.283 32.904 244.639 33.252 242.743 33.252ZM275.008 15.864C275.008 17.328 274.672 18.672 274 19.896C273.328 21.096 272.296 22.068 270.904 22.812C269.512 23.556 267.784 23.928 265.72 23.928H261.904V33H255.748V7.728H265.72C267.736 7.728 269.44 8.076 270.832 8.772C272.224 9.468 273.268 10.428 273.964 11.652C274.66 12.876 275.008 14.28 275.008 15.864ZM265.252 19.032C266.428 19.032 267.304 18.756 267.88 18.204C268.456 17.652 268.744 16.872 268.744 15.864C268.744 14.856 268.456 14.076 267.88 13.524C267.304 12.972 266.428 12.696 265.252 12.696H261.904V19.032H265.252ZM290.164 33.252C287.788 33.252 285.604 32.7 283.612 31.596C281.644 30.492 280.072 28.956 278.896 26.988C277.744 24.996 277.168 22.764 277.168 20.292C277.168 17.82 277.744 15.6 278.896 13.632C280.072 11.664 281.644 10.128 283.612 9.024C285.604 7.92 287.788 7.368 290.164 7.368C292.54 7.368 294.712 7.92 296.68 9.024C298.672 10.128 300.232 11.664 301.36 13.632C302.512 15.6 303.088 17.82 303.088 20.292C303.088 22.764 302.512 24.996 301.36 26.988C300.208 28.956 298.648 30.492 296.68 31.596C294.712 32.7 292.54 33.252 290.164 33.252ZM290.164 27.636C292.18 27.636 293.788 26.964 294.988 25.62C296.212 24.276 296.824 22.5 296.824 20.292C296.824 18.06 296.212 16.284 294.988 14.964C293.788 13.62 292.18 12.948 290.164 12.948C288.124 12.948 286.492 13.608 285.268 14.928C284.068 16.248 283.468 18.036 283.468 20.292C283.468 22.524 284.068 24.312 285.268 25.656C286.492 26.976 288.124 27.636 290.164 27.636ZM319.401 33L314.145 23.46H312.669V33H306.513V7.728H316.845C318.837 7.728 320.529 8.076 321.921 8.772C323.337 9.468 324.393 10.428 325.089 11.652C325.785 12.852 326.133 14.196 326.133 15.684C326.133 17.364 325.653 18.864 324.693 20.184C323.757 21.504 322.365 22.44 320.517 22.992L326.349 33H319.401ZM312.669 19.104H316.485C317.613 19.104 318.453 18.828 319.005 18.276C319.581 17.724 319.869 16.944 319.869 15.936C319.869 14.976 319.581 14.22 319.005 13.668C318.453 13.116 317.613 12.84 316.485 12.84H312.669V19.104ZM348.178 7.728V12.66H341.482V33H335.326V12.66H328.63V7.728H348.178ZM357.423 12.66V17.772H365.667V22.524H357.423V28.068H366.747V33H351.267V7.728H366.747V12.66H357.423ZM379.888 33.252C378.04 33.252 376.384 32.952 374.92 32.352C373.456 31.752 372.28 30.864 371.392 29.688C370.528 28.512 370.072 27.096 370.024 25.44H376.576C376.672 26.376 376.996 27.096 377.548 27.6C378.1 28.08 378.82 28.32 379.708 28.32C380.62 28.32 381.34 28.116 381.868 27.708C382.396 27.276 382.66 26.688 382.66 25.944C382.66 25.32 382.444 24.804 382.012 24.396C381.604 23.988 381.088 23.652 380.464 23.388C379.864 23.124 379 22.824 377.872 22.488C376.24 21.984 374.908 21.48 373.876 20.976C372.844 20.472 371.956 19.728 371.212 18.744C370.468 17.76 370.096 16.476 370.096 14.892C370.096 12.54 370.948 10.704 372.652 9.384C374.356 8.04 376.576 7.368 379.312 7.368C382.096 7.368 384.34 8.04 386.044 9.384C387.748 10.704 388.66 12.552 388.78 14.928H382.12C382.072 14.112 381.772 13.476 381.22 13.02C380.668 12.54 379.96 12.3 379.096 12.3C378.352 12.3 377.752 12.504 377.296 12.912C376.84 13.296 376.612 13.86 376.612 14.604C376.612 15.42 376.996 16.056 377.764 16.512C378.532 16.968 379.732 17.46 381.364 17.988C382.996 18.54 384.316 19.068 385.324 19.572C386.356 20.076 387.244 20.808 387.988 21.768C388.732 22.728 389.104 23.964 389.104 25.476C389.104 26.916 388.732 28.224 387.988 29.4C387.268 30.576 386.212 31.512 384.82 32.208C383.428 32.904 381.784 33.252 379.888 33.252Z" fill="white"/>
<defs>
<clipPath id="clip0_468_16545">
<rect width="122" height="77" fill="white"/>
</clipPath>
</defs>
</svg>
