<svg class="svg-reclamaciones" data-name="Capa 2" xmlns="http://www.w3.org/2000/svg" viewBox="0 0 211.42 82.62">
	<g fill="#fff" id="Capa_1-2" data-name="Capa 1">
		<g>
			<path class="cls" d="M10.96,20.93L44.2,4.83c.94-.45,1.99,.34,1.82,1.37l-.4,2.33L11.36,21.83c-.14,.05-.29,.04-.41-.03-.35-.19-.34-.7,.02-.88m45.64,46.6c.02,.59-.38,1.11-.95,1.27-.79,.21-2.03,.54-3.59,.96l2.16,2.72c1.3,1.64,.97,4.04-.74,5.26l-5.88,4.19c-.65,.46-1.39,.68-2.12,.68-1.31,0-2.59-.7-3.25-1.96l-3.8-7.23c-10.94,2.95-23.18,6.25-25.49,6.9-4.33,1.22-9.6-1.72-10.14-4.07C1.92,73.31-.12,29.74,0,25.87c.13-3.88,1.87-5.12,8.8-10.39C18.41,8.17,25.14,2.81,28.26,.29c.82-.66,2.03-.11,2.08,.94l.07,1.73c.02,.45-.19,.87-.56,1.11-3.4,2.27-20.29,13.59-22.5,15.85-2.47,2.52,.61,4.7,3.21,4.19,1.69-.33,35.27-9.59,42.99-11.71,.8-.22,1.59,.37,1.62,1.2l1.45,53.93Zm-14.37-5.51l-1.88-2.36,2.44-1.78,4.34-3.16c.27-.2,.32-.47,.31-.65,0-.19-.08-.45-.37-.62l-20.15-12.27c-.13-.08-.26-.12-.39-.12-.21,0-.43,.1-.58,.26-.14,.16-.21,.34-.19,.57l1.96,25.54c.04,.52,.5,.71,.78,.71,.16,0,.3-.05,.44-.15l4.47-3.26,2.71-1.98,1.56,2.97,7.14,13.59c.2,.38,.58,.41,.68,.41,.16,0,.31-.05,.44-.14l5.88-4.19c.22-.16,.29-.37,.31-.52,.02-.15,.01-.37-.16-.58l-9.74-12.26Z">
			</path>
			<polygon class="cls" points="76.6 15.86 78.61 15.86 78.61 28.18 85.76 28.18 85.76 30.02 76.6 30.02 76.6 15.86">
			</polygon>
			<path class="cls" d="M87.04,15.86h1.82v1.82h-1.82v-1.82Zm0,3.7h1.82v10.46h-1.82v-10.46Z">
			</path>
			<path class="cls" d="M95.87,30.18c-.85,0-1.59-.15-2.21-.44-.62-.3-1.13-.66-1.53-1.11v1.38h-1.82V15.86h1.82v5.06c.41-.43,.93-.79,1.56-1.07,.63-.29,1.35-.43,2.18-.43,.73,0,1.42,.14,2.06,.42,.64,.28,1.2,.66,1.68,1.15,.48,.48,.86,1.05,1.15,1.71,.28,.65,.42,1.36,.42,2.12s-.14,1.46-.42,2.12c-.28,.65-.66,1.22-1.15,1.71-.48,.48-1.04,.86-1.68,1.14-.64,.28-1.33,.41-2.06,.41m-.1-1.67c.51,0,.99-.1,1.44-.29s.83-.45,1.16-.79c.32-.33,.58-.72,.76-1.17,.19-.45,.28-.93,.28-1.46s-.09-.99-.28-1.45c-.19-.45-.44-.85-.76-1.18-.32-.33-.71-.59-1.16-.79s-.93-.29-1.44-.29-1.01,.1-1.46,.29c-.45,.19-.84,.45-1.17,.79-.33,.33-.59,.72-.79,1.18-.19,.45-.29,.94-.29,1.45s.09,1.01,.28,1.46c.19,.45,.44,.84,.78,1.17s.72,.59,1.18,.79c.45,.19,.94,.29,1.47,.29">
			</path>
			<path class="cls" d="M107.48,21.27c-1.03,0-1.84,.31-2.42,.94-.58,.63-.87,1.46-.87,2.51v5.29h-1.82v-10.46h1.8v1.74c.12-.21,.28-.42,.48-.64,.19-.22,.42-.42,.69-.61,.27-.19,.58-.34,.94-.45,.36-.12,.76-.18,1.2-.18v1.86Z">
			</path>
			<path class="cls" d="M113.13,19.39c.79,0,1.51,.14,2.17,.42,.66,.28,1.24,.66,1.73,1.15,.49,.48,.87,1.05,1.15,1.71,.28,.65,.41,1.36,.41,2.12s-.14,1.47-.41,2.13c-.28,.66-.66,1.24-1.15,1.73-.49,.49-1.06,.88-1.73,1.16-.66,.28-1.38,.42-2.17,.42s-1.51-.14-2.18-.42c-.67-.28-1.25-.66-1.74-1.15-.49-.48-.87-1.05-1.15-1.72-.28-.66-.41-1.38-.41-2.15s.14-1.46,.41-2.12c.28-.65,.66-1.22,1.15-1.71,.49-.48,1.07-.86,1.74-1.15,.67-.28,1.4-.42,2.18-.42m0,1.65c-.52,0-1.01,.1-1.46,.29-.45,.19-.84,.45-1.17,.79-.33,.33-.59,.73-.78,1.19-.19,.46-.28,.96-.28,1.5s.09,1.03,.27,1.49c.18,.45,.43,.85,.75,1.18,.32,.33,.71,.59,1.16,.79,.45,.19,.93,.29,1.46,.29s1.01-.1,1.46-.29c.45-.19,.84-.45,1.17-.79,.33-.33,.59-.72,.79-1.18,.19-.45,.29-.95,.29-1.49s-.09-1.04-.28-1.5c-.19-.46-.44-.86-.77-1.19-.32-.33-.71-.59-1.16-.79-.45-.19-.93-.29-1.46-.29">
			</path>
			<path class="cls" d="M132.72,28.63c-.4,.44-.91,.81-1.53,1.11-.62,.3-1.36,.44-2.21,.44-.73,0-1.42-.14-2.06-.41-.64-.28-1.2-.65-1.68-1.14-.48-.48-.87-1.05-1.15-1.71-.28-.65-.42-1.36-.42-2.12s.14-1.46,.42-2.12c.28-.65,.66-1.22,1.15-1.71,.48-.48,1.04-.86,1.68-1.15,.64-.28,1.33-.42,2.06-.42,.83,0,1.55,.14,2.18,.43,.63,.29,1.15,.65,1.56,1.07v-5.06h1.82v14.16h-1.82v-1.38Zm-3.64-.12c.52,0,1.01-.1,1.47-.29,.45-.19,.85-.45,1.18-.79,.33-.33,.59-.72,.78-1.17,.19-.45,.28-.93,.28-1.46s-.1-.99-.29-1.45c-.19-.45-.45-.85-.79-1.18-.33-.33-.72-.59-1.17-.79-.45-.19-.93-.29-1.46-.29s-1.01,.1-1.45,.29c-.44,.19-.82,.45-1.15,.79-.32,.33-.58,.72-.76,1.18-.19,.45-.28,.94-.28,1.45s.09,1.01,.28,1.46c.19,.45,.44,.84,.76,1.17s.71,.59,1.15,.79c.44,.19,.92,.29,1.45,.29">
			</path>
			<path class="cls" d="M146.1,27.62c-.51,.81-1.17,1.45-1.97,1.91-.81,.46-1.79,.69-2.97,.69-.81,0-1.55-.14-2.21-.42-.66-.28-1.23-.66-1.71-1.15-.48-.48-.84-1.05-1.11-1.72-.26-.66-.39-1.38-.39-2.15s.13-1.45,.4-2.11c.27-.66,.64-1.23,1.12-1.72,.48-.48,1.04-.86,1.71-1.15,.66-.28,1.39-.42,2.19-.42s1.55,.13,2.2,.4c.65,.27,1.21,.64,1.67,1.11,.46,.47,.82,1.02,1.06,1.64,.25,.63,.37,1.3,.37,2.02,0,.34-.02,.62-.06,.83h-8.85c.11,.95,.49,1.72,1.13,2.32,.64,.59,1.48,.89,2.51,.89,.87,0,1.58-.16,2.13-.49,.55-.32,1.01-.77,1.36-1.33l1.41,.85Zm-4.94-6.66c-.95,0-1.74,.27-2.37,.8-.63,.53-1.02,1.25-1.19,2.16h6.99c-.14-.94-.53-1.66-1.17-2.18-.64-.52-1.4-.78-2.26-.78">
			</path>
			<path class="cls" d="M76.25,49.84v-10.6h2.87v1.45c.36-.48,.8-.87,1.31-1.16,.52-.29,1.11-.43,1.77-.43v2.89c-1.06,0-1.84,.27-2.33,.82-.49,.54-.73,1.28-.73,2.2v4.84h-2.89Z">
			</path>
			<path class="cls" d="M92.93,47.57c-.52,.79-1.2,1.4-2.02,1.85-.82,.45-1.82,.67-3.01,.67-.85,0-1.62-.14-2.3-.42-.68-.28-1.27-.67-1.76-1.16-.49-.49-.87-1.07-1.13-1.75-.26-.67-.39-1.41-.39-2.19s.13-1.47,.4-2.15c.27-.67,.65-1.26,1.15-1.77,.5-.5,1.09-.9,1.78-1.19,.69-.29,1.45-.43,2.27-.43s1.59,.14,2.25,.41c.66,.28,1.22,.65,1.68,1.14,.46,.48,.82,1.05,1.06,1.71,.25,.65,.37,1.37,.37,2.14,0,.21,0,.42-.02,.64-.01,.22-.02,.34-.02,.37h-8.1c.15,.68,.47,1.21,.96,1.61,.49,.4,1.11,.6,1.85,.6,.65,0,1.2-.13,1.66-.38,.46-.26,.84-.6,1.15-1.02l2.15,1.32Zm-5.02-6.18c-.68,0-1.24,.17-1.68,.51s-.77,.81-.96,1.42h5.15c-.15-.65-.46-1.13-.93-1.45-.47-.32-.99-.48-1.57-.48">
			</path>
			<path class="cls" d="M104.65,47.38c-.51,.83-1.17,1.49-1.97,1.97-.81,.49-1.8,.73-2.97,.73-.83,0-1.58-.14-2.26-.43-.68-.29-1.27-.68-1.77-1.18s-.88-1.08-1.16-1.75c-.28-.67-.41-1.39-.41-2.16s.14-1.5,.41-2.17c.28-.68,.66-1.26,1.16-1.76,.5-.5,1.09-.89,1.77-1.18,.68-.29,1.44-.43,2.26-.43,1.17,0,2.17,.25,2.99,.76,.82,.51,1.48,1.18,1.97,2l-2.25,1.41c-.28-.44-.61-.81-1.01-1.11-.4-.3-.93-.44-1.59-.44-.84,0-1.52,.27-2.04,.81-.52,.54-.78,1.24-.78,2.11s.26,1.57,.78,2.12c.52,.54,1.2,.82,2.04,.82,.66,0,1.19-.15,1.59-.44,.4-.3,.74-.66,1.01-1.11l2.23,1.43Z">
			</path>
			<rect class="cls" x="105.52" y="35.68" width="2.89" height="14.16">
			</rect>
			<path class="cls" d="M117.84,49.05c-.37,.29-.83,.52-1.37,.68-.54,.17-1.12,.25-1.73,.25-.73,0-1.42-.14-2.07-.41-.65-.28-1.21-.65-1.7-1.14-.48-.48-.87-1.05-1.16-1.71-.29-.65-.43-1.37-.43-2.14s.14-1.47,.43-2.14c.29-.67,.68-1.25,1.16-1.74,.48-.49,1.05-.87,1.7-1.16,.65-.28,1.34-.42,2.07-.42,.61,0,1.18,.09,1.73,.26,.54,.17,1,.4,1.37,.69v-.85h2.87v10.6h-2.87v-.79Zm-2.85-7.32c-.4,0-.77,.08-1.11,.23-.34,.15-.63,.35-.88,.61-.25,.26-.44,.56-.59,.91-.14,.35-.22,.72-.22,1.11s.07,.77,.22,1.12c.14,.34,.34,.65,.59,.91,.25,.26,.54,.47,.88,.61,.34,.14,.71,.22,1.11,.22s.8-.07,1.15-.22c.35-.14,.66-.35,.92-.61,.26-.26,.46-.56,.61-.91,.14-.34,.22-.72,.22-1.12s-.08-.75-.23-1.11c-.15-.35-.36-.65-.62-.91-.26-.25-.57-.46-.92-.61-.35-.15-.73-.23-1.13-.23">
			</path>
			<path class="cls" d="M124.7,40.29c.14-.14,.3-.28,.49-.42,.19-.14,.4-.28,.65-.4,.25-.12,.52-.22,.82-.3,.3-.08,.62-.11,.98-.11,.61,0,1.17,.11,1.68,.34,.52,.23,.97,.6,1.35,1.11,.41-.44,.9-.79,1.47-1.05,.56-.26,1.23-.39,2.01-.39,.65,0,1.23,.1,1.74,.3,.51,.2,.94,.49,1.3,.86,.36,.37,.63,.82,.82,1.33,.19,.52,.28,1.09,.28,1.73v6.57h-2.85v-6.1c0-.62-.16-1.12-.47-1.49-.31-.37-.75-.56-1.31-.56-.65,0-1.17,.2-1.56,.61-.39,.41-.59,.97-.59,1.68v5.85h-2.83v-6.1c0-.62-.16-1.12-.47-1.49-.31-.37-.75-.56-1.31-.56-.65,0-1.17,.2-1.56,.61-.39,.41-.59,.97-.59,1.68v5.85h-2.87v-10.6h2.83v1.05Z">
			</path>
			<path class="cls" d="M147.71,49.05c-.37,.29-.83,.52-1.37,.68-.54,.17-1.12,.25-1.73,.25-.73,0-1.42-.14-2.07-.41-.65-.28-1.21-.65-1.7-1.14-.48-.48-.87-1.05-1.16-1.71-.29-.65-.43-1.37-.43-2.14s.14-1.47,.43-2.14c.29-.67,.68-1.25,1.16-1.74,.48-.49,1.05-.87,1.7-1.16,.65-.28,1.34-.42,2.07-.42,.61,0,1.18,.09,1.73,.26,.54,.17,1,.4,1.37,.69v-.85h2.87v10.6h-2.87v-.79Zm-2.85-7.32c-.4,0-.77,.08-1.11,.23-.34,.15-.63,.35-.88,.61-.25,.26-.44,.56-.59,.91-.14,.35-.22,.72-.22,1.11s.07,.77,.22,1.12c.14,.34,.34,.65,.59,.91,.25,.26,.54,.47,.88,.61,.34,.14,.71,.22,1.11,.22s.8-.07,1.15-.22c.35-.14,.66-.35,.92-.61,.26-.26,.46-.56,.61-.91,.15-.34,.22-.72,.22-1.12s-.08-.75-.23-1.11c-.15-.35-.36-.65-.62-.91-.26-.25-.57-.46-.92-.61-.35-.15-.73-.23-1.13-.23">
			</path>
			<path class="cls" d="M162.1,47.38c-.51,.83-1.17,1.49-1.97,1.97-.81,.49-1.8,.73-2.97,.73-.83,0-1.58-.14-2.26-.43-.68-.29-1.27-.68-1.77-1.18s-.88-1.08-1.16-1.75c-.28-.67-.41-1.39-.41-2.16s.14-1.5,.41-2.17c.28-.68,.66-1.26,1.16-1.76,.5-.5,1.09-.89,1.77-1.18,.68-.29,1.44-.43,2.26-.43,1.17,0,2.17,.25,2.99,.76,.82,.51,1.48,1.18,1.97,2l-2.25,1.41c-.28-.44-.61-.81-1.01-1.11-.4-.3-.93-.44-1.59-.44-.84,0-1.52,.27-2.04,.81-.52,.54-.78,1.24-.78,2.11s.26,1.57,.78,2.12c.52,.54,1.2,.82,2.04,.82,.66,0,1.19-.15,1.59-.44,.4-.3,.74-.66,1.01-1.11l2.23,1.43Z">
			</path>
			<path class="cls" d="M162.97,35.68h2.87v2.65h-2.87v-2.65Zm0,3.56h2.87v10.6h-2.87v-10.6Z">
			</path>
			<path class="cls" d="M172.49,39.03c.81,0,1.57,.15,2.26,.43,.7,.29,1.3,.68,1.81,1.18,.51,.5,.91,1.08,1.2,1.76,.29,.68,.43,1.4,.43,2.17s-.14,1.49-.43,2.16c-.29,.67-.69,1.25-1.2,1.75-.51,.5-1.11,.89-1.81,1.18-.7,.29-1.45,.43-2.26,.43s-1.57-.14-2.26-.42c-.7-.28-1.3-.67-1.81-1.17-.51-.5-.91-1.08-1.19-1.76-.28-.67-.42-1.4-.42-2.17s.14-1.5,.43-2.17c.29-.67,.69-1.26,1.19-1.76,.5-.5,1.1-.89,1.8-1.18,.7-.29,1.45-.43,2.26-.43m0,2.6c-.4,0-.78,.07-1.13,.22-.35,.14-.65,.35-.91,.61-.26,.26-.45,.57-.6,.93-.14,.36-.22,.75-.22,1.18s.07,.82,.21,1.18c.14,.36,.33,.67,.58,.93,.25,.26,.54,.47,.89,.62,.34,.15,.72,.23,1.12,.23s.78-.08,1.14-.23c.36-.15,.67-.36,.93-.62,.26-.26,.47-.57,.62-.93,.15-.36,.23-.75,.23-1.18s-.07-.82-.22-1.18c-.14-.36-.34-.67-.6-.93-.25-.26-.56-.47-.91-.61-.35-.14-.73-.22-1.13-.22">
			</path>
			<path class="cls" d="M181.96,40.31c.26-.3,.65-.59,1.18-.86,.52-.27,1.16-.4,1.9-.4,.62,0,1.18,.1,1.68,.31,.5,.21,.93,.5,1.29,.87,.36,.37,.63,.82,.83,1.35,.19,.53,.29,1.11,.29,1.75v6.51h-2.85v-6.02c0-.63-.17-1.15-.51-1.54-.34-.39-.82-.59-1.44-.59-.7,0-1.27,.21-1.69,.62-.43,.41-.64,.99-.64,1.74v5.79h-2.87v-10.6h2.83v1.08Z">
			</path>
			<path class="cls" d="M200.71,47.57c-.52,.79-1.2,1.4-2.02,1.85-.82,.45-1.82,.67-3.01,.67-.85,0-1.62-.14-2.3-.42-.68-.28-1.27-.67-1.76-1.16-.49-.49-.87-1.07-1.13-1.75-.26-.67-.39-1.41-.39-2.19s.13-1.47,.4-2.15c.27-.67,.65-1.26,1.15-1.77,.5-.5,1.09-.9,1.78-1.19,.69-.29,1.45-.43,2.27-.43s1.59,.14,2.25,.41c.66,.28,1.22,.65,1.68,1.14,.46,.48,.82,1.05,1.06,1.71,.25,.65,.37,1.37,.37,2.14,0,.21,0,.42-.02,.64-.01,.22-.02,.34-.02,.37h-8.1c.15,.68,.47,1.21,.96,1.61,.49,.4,1.11,.6,1.85,.6,.65,0,1.2-.13,1.66-.38,.46-.26,.84-.6,1.15-1.02l2.15,1.32Zm-5.02-6.18c-.68,0-1.24,.17-1.68,.51-.45,.34-.77,.81-.96,1.42h5.15c-.15-.65-.46-1.13-.93-1.45-.47-.32-.99-.48-1.57-.48">
			</path>
			<path class="cls" d="M204.82,46.51c0,.17,.03,.33,.09,.5,.06,.17,.17,.32,.32,.45,.15,.14,.35,.26,.6,.35,.25,.1,.56,.14,.95,.14,.54,0,.93-.1,1.19-.31,.25-.21,.38-.43,.38-.68,0-.17-.05-.31-.14-.42-.1-.12-.23-.21-.39-.28-.17-.07-.36-.13-.59-.18-.23-.05-.47-.09-.73-.13-.47-.08-.96-.17-1.48-.27-.52-.1-.99-.26-1.43-.49-.43-.23-.79-.55-1.07-.96-.28-.41-.42-.98-.42-1.7,0-.48,.1-.93,.31-1.34s.5-.78,.88-1.09c.38-.31,.84-.55,1.37-.73,.54-.18,1.14-.27,1.82-.27,1.35,0,2.43,.32,3.22,.95,.8,.63,1.24,1.49,1.32,2.56h-2.87c-.01-.19-.04-.37-.09-.54-.05-.17-.13-.31-.26-.42-.12-.12-.29-.21-.5-.28-.21-.07-.47-.1-.79-.1-.41,0-.77,.07-1.06,.22-.3,.14-.44,.38-.44,.71,0,.19,.06,.35,.19,.49,.12,.13,.3,.24,.52,.32,.22,.08,.48,.15,.76,.21,.29,.06,.59,.11,.91,.17,.45,.08,.92,.18,1.4,.28,.48,.1,.91,.27,1.3,.49,.39,.22,.71,.51,.96,.88,.25,.37,.37,.84,.37,1.44,0,.63-.12,1.18-.37,1.62-.25,.45-.59,.82-1.01,1.11-.43,.29-.93,.5-1.52,.64-.59,.14-1.21,.21-1.87,.21-.73,0-1.38-.09-1.95-.27-.57-.18-1.06-.43-1.47-.74-.41-.32-.72-.69-.95-1.12-.23-.43-.35-.9-.36-1.41h2.91Z">
			</path>
			<g>
				<path class="cls" d="M85.97,60c-.19-.19-.42-.34-.69-.45-.27-.11-.55-.16-.86-.16h-1.26v4.31h1.31c.3,0,.58-.05,.83-.16,.25-.11,.48-.26,.67-.45,.19-.19,.34-.42,.45-.69,.11-.27,.16-.56,.16-.87s-.05-.59-.16-.85c-.11-.26-.26-.49-.45-.68Z">
				</path>
				<polygon class="cls" points="116.16 62.49 118.07 62.49 117.11 59.61 116.16 62.49">
				</polygon>
				<path class="cls" d="M130.27,55.35h-51.37c-1.78,0-3.23,1.44-3.23,3.23v5.49c0,1.78,1.44,3.23,3.23,3.23h51.37c1.78,0,3.23-1.44,3.23-3.23v-5.49c0-1.78-1.45-3.23-3.23-3.23Zm-42.28,7.61c-.19,.45-.45,.85-.78,1.18-.34,.33-.74,.6-1.21,.79-.47,.19-.99,.29-1.56,.29h-2.92v-7.36h3.01c.57,0,1.08,.09,1.54,.28,.46,.19,.86,.45,1.18,.77,.33,.33,.58,.71,.76,1.16,.18,.44,.27,.92,.27,1.43s-.09,1-.28,1.46Zm3.97,2.26h-1.67v-7.36h1.67v7.36Zm9.71-3.7c0,.55-.09,1.06-.27,1.53-.18,.47-.44,.88-.76,1.22-.33,.34-.72,.61-1.18,.81-.46,.19-.96,.29-1.52,.29-.58,0-1.11-.1-1.6-.3-.49-.2-.91-.47-1.26-.82-.35-.35-.62-.75-.82-1.22-.19-.47-.29-.96-.29-1.49s.1-1.02,.28-1.48c.19-.47,.46-.87,.81-1.22,.35-.35,.76-.62,1.25-.82,.49-.2,1.03-.3,1.62-.3,.69,0,1.3,.13,1.82,.4,.52,.27,.95,.64,1.28,1.12l-1.23,1.04c-.25-.31-.53-.56-.84-.74-.31-.18-.66-.26-1.04-.26-.32,0-.62,.06-.9,.17-.28,.11-.52,.27-.72,.47-.2,.2-.36,.45-.48,.73-.11,.28-.17,.6-.17,.94,0,.32,.06,.62,.17,.9,.11,.28,.26,.51,.46,.71,.2,.2,.43,.35,.7,.47,.27,.11,.57,.17,.89,.17,.49,0,.9-.11,1.22-.34,.32-.23,.55-.54,.69-.94h-1.96v-1.45h3.82v.43Zm3.67,3.7h-1.67v-7.36h1.67v7.36Zm7.94-5.84h-2.19v5.84h-1.67v-5.84h-2.19v-1.53h6.05v1.53Zm5.72,5.84l-.42-1.27h-2.89l-.42,1.27h-1.71l2.6-7.36h2.04l2.59,7.36h-1.79Zm8.69,0h-5.08v-7.36h1.67v5.84h3.42v1.53Z">
				</path>
			</g>
		</g>
	</g>
</svg>
