<svg width="1428" height="921" viewBox="0 0 1428 921" fill="none" xmlns="http://www.w3.org/2000/svg">
<g clip-path="url(#clip0_462_150975)">
<path d="M-16 124V138L-6 148L4 138V124M-16 124V46L-6 56L4 46V124M-16 124L-6 134L4 124" stroke="#EEEEEE"/>
<path d="M-16 32V46L-6 56L4 46V32M-16 32V-46L-6 -36L4 -46V32M-16 32L-6 42L4 32" stroke="#EEEEEE"/>
<path d="M-16 216V230L-6 240L4 230V216M-16 216V138L-6 148L4 138V216M-16 216L-6 226L4 216" stroke="#EEEEEE"/>
<path d="M-16 308V322L-6 332L4 322V308M-16 308V230L-6 240L4 230V308M-16 308L-6 318L4 308" stroke="#EEEEEE"/>
<path d="M-16 400V414L-6 424L4 414V400M-16 400V322L-6 332L4 322V400M-16 400L-6 410L4 400" stroke="#EEEEEE"/>
<path d="M4 174V188L14 198L24 188V174M4 174V96L14 106L24 96V174M4 174L14 184L24 174" stroke="#EEEEEE"/>
<path d="M4 82V96L14 106L24 96V82M4 82V4L14 14L24 4V82M4 82L14 92L24 82" stroke="#EEEEEE"/>
<path d="M4 266V280L14 290L24 280V266M4 266V188L14 198L24 188V266M4 266L14 276L24 266" stroke="#EEEEEE"/>
<path d="M4 358V372L14 382L24 372V358M4 358V280L14 290L24 280V358M4 358L14 368L24 358" stroke="#EEEEEE"/>
<path d="M4 450V464L14 474L24 464V450M4 450V372L14 382L24 372V450M4 450L14 460L24 450" stroke="#EEEEEE"/>
<path d="M24 124V138L34 148L44 138V124M24 124V46L34 56L44 46V124M24 124L34 134L44 124" stroke="#EEEEEE"/>
<path d="M24 32V46L34 56L44 46V32M24 32V-46L34 -36L44 -46V32M24 32L34 42L44 32" stroke="#EEEEEE"/>
<path d="M24 216V230L34 240L44 230V216M24 216V138L34 148L44 138V216M24 216L34 226L44 216" stroke="#EEEEEE"/>
<path d="M24 308V322L34 332L44 322V308M24 308V230L34 240L44 230V308M24 308L34 318L44 308" stroke="#EEEEEE"/>
<path d="M24 400V414L34 424L44 414V400M24 400V322L34 332L44 322V400M24 400L34 410L44 400" stroke="#EEEEEE"/>
<path d="M44 174V188L54 198L64 188V174M44 174V96L54 106L64 96V174M44 174L54 184L64 174" stroke="#EEEEEE"/>
<path d="M44 82V96L54 106L64 96V82M44 82V4L54 14L64 4V82M44 82L54 92L64 82" stroke="#EEEEEE"/>
<path d="M44 266V280L54 290L64 280V266M44 266V188L54 198L64 188V266M44 266L54 276L64 266" stroke="#EEEEEE"/>
<path d="M44 358V372L54 382L64 372V358M44 358V280L54 290L64 280V358M44 358L54 368L64 358" stroke="#EEEEEE"/>
<path d="M44 450V464L54 474L64 464V450M44 450V372L54 382L64 372V450M44 450L54 460L64 450" stroke="#EEEEEE"/>
<path d="M64 124V138L74 148L84 138V124M64 124V46L74 56L84 46V124M64 124L74 134L84 124" stroke="#EEEEEE"/>
<path d="M64 32V46L74 56L84 46V32M64 32V-46L74 -36L84 -46V32M64 32L74 42L84 32" stroke="#EEEEEE"/>
<path d="M64 216V230L74 240L84 230V216M64 216V138L74 148L84 138V216M64 216L74 226L84 216" stroke="#EEEEEE"/>
<path d="M64 308V322L74 332L84 322V308M64 308V230L74 240L84 230V308M64 308L74 318L84 308" stroke="#EEEEEE"/>
<path d="M64 400V414L74 424L84 414V400M64 400V322L74 332L84 322V400M64 400L74 410L84 400" stroke="#EEEEEE"/>
<path d="M84 174V188L94 198L104 188V174M84 174V96L94 106L104 96V174M84 174L94 184L104 174" stroke="#EEEEEE"/>
<path d="M84 82V96L94 106L104 96V82M84 82V4L94 14L104 4V82M84 82L94 92L104 82" stroke="#EEEEEE"/>
<path d="M84 266V280L94 290L104 280V266M84 266V188L94 198L104 188V266M84 266L94 276L104 266" stroke="#EEEEEE"/>
<path d="M84 358V372L94 382L104 372V358M84 358V280L94 290L104 280V358M84 358L94 368L104 358" stroke="#EEEEEE"/>
<path d="M84 450V464L94 474L104 464V450M84 450V372L94 382L104 372V450M84 450L94 460L104 450" stroke="#EEEEEE"/>
<path d="M104 124V138L114 148L124 138V124M104 124V46L114 56L124 46V124M104 124L114 134L124 124" stroke="#EEEEEE"/>
<path d="M104 32V46L114 56L124 46V32M104 32V-46L114 -36L124 -46V32M104 32L114 42L124 32" stroke="#EEEEEE"/>
<path d="M104 216V230L114 240L124 230V216M104 216V138L114 148L124 138V216M104 216L114 226L124 216" stroke="#EEEEEE"/>
<path d="M104 308V322L114 332L124 322V308M104 308V230L114 240L124 230V308M104 308L114 318L124 308" stroke="#EEEEEE"/>
<path d="M104 400V414L114 424L124 414V400M104 400V322L114 332L124 322V400M104 400L114 410L124 400" stroke="#EEEEEE"/>
<path d="M124 174V188L134 198L144 188V174M124 174V96L134 106L144 96V174M124 174L134 184L144 174" stroke="#EEEEEE"/>
<path d="M124 82V96L134 106L144 96V82M124 82V4L134 14L144 4V82M124 82L134 92L144 82" stroke="#EEEEEE"/>
<path d="M124 266V280L134 290L144 280V266M124 266V188L134 198L144 188V266M124 266L134 276L144 266" stroke="#EEEEEE"/>
<path d="M124 358V372L134 382L144 372V358M124 358V280L134 290L144 280V358M124 358L134 368L144 358" stroke="#EEEEEE"/>
<path d="M124 450V464L134 474L144 464V450M124 450V372L134 382L144 372V450M124 450L134 460L144 450" stroke="#EEEEEE"/>
<path d="M144 124V138L154 148L164 138V124M144 124V46L154 56L164 46V124M144 124L154 134L164 124" stroke="#EEEEEE"/>
<path d="M144 32V46L154 56L164 46V32M144 32V-46L154 -36L164 -46V32M144 32L154 42L164 32" stroke="#EEEEEE"/>
<path d="M144 216V230L154 240L164 230V216M144 216V138L154 148L164 138V216M144 216L154 226L164 216" stroke="#EEEEEE"/>
<path d="M144 308V322L154 332L164 322V308M144 308V230L154 240L164 230V308M144 308L154 318L164 308" stroke="#EEEEEE"/>
<path d="M144 400V414L154 424L164 414V400M144 400V322L154 332L164 322V400M144 400L154 410L164 400" stroke="#EEEEEE"/>
<path d="M164 174V188L174 198L184 188V174M164 174V96L174 106L184 96V174M164 174L174 184L184 174" stroke="#EEEEEE"/>
<path d="M164 82V96L174 106L184 96V82M164 82V4L174 14L184 4V82M164 82L174 92L184 82" stroke="#EEEEEE"/>
<path d="M164 266V280L174 290L184 280V266M164 266V188L174 198L184 188V266M164 266L174 276L184 266" stroke="#EEEEEE"/>
<path d="M164 358V372L174 382L184 372V358M164 358V280L174 290L184 280V358M164 358L174 368L184 358" stroke="#EEEEEE"/>
<path d="M164 450V464L174 474L184 464V450M164 450V372L174 382L184 372V450M164 450L174 460L184 450" stroke="#EEEEEE"/>
<path d="M184 124V138L194 148L204 138V124M184 124V46L194 56L204 46V124M184 124L194 134L204 124" stroke="#EEEEEE"/>
<path d="M184 32V46L194 56L204 46V32M184 32V-46L194 -36L204 -46V32M184 32L194 42L204 32" stroke="#EEEEEE"/>
<path d="M184 216V230L194 240L204 230V216M184 216V138L194 148L204 138V216M184 216L194 226L204 216" stroke="#EEEEEE"/>
<path d="M184 308V322L194 332L204 322V308M184 308V230L194 240L204 230V308M184 308L194 318L204 308" stroke="#EEEEEE"/>
<path d="M184 400V414L194 424L204 414V400M184 400V322L194 332L204 322V400M184 400L194 410L204 400" stroke="#EEEEEE"/>
<path d="M204 174V188L214 198L224 188V174M204 174V96L214 106L224 96V174M204 174L214 184L224 174" stroke="#EEEEEE"/>
<path d="M204 82V96L214 106L224 96V82M204 82V4L214 14L224 4V82M204 82L214 92L224 82" stroke="#EEEEEE"/>
<path d="M204 266V280L214 290L224 280V266M204 266V188L214 198L224 188V266M204 266L214 276L224 266" stroke="#EEEEEE"/>
<path d="M204 358V372L214 382L224 372V358M204 358V280L214 290L224 280V358M204 358L214 368L224 358" stroke="#EEEEEE"/>
<path d="M204 450V464L214 474L224 464V450M204 450V372L214 382L224 372V450M204 450L214 460L224 450" stroke="#EEEEEE"/>
<path d="M224 124V138L234 148L244 138V124M224 124V46L234 56L244 46V124M224 124L234 134L244 124" stroke="#EEEEEE"/>
<path d="M224 32V46L234 56L244 46V32M224 32V-46L234 -36L244 -46V32M224 32L234 42L244 32" stroke="#EEEEEE"/>
<path d="M224 216V230L234 240L244 230V216M224 216V138L234 148L244 138V216M224 216L234 226L244 216" stroke="#EEEEEE"/>
<path d="M224 308V322L234 332L244 322V308M224 308V230L234 240L244 230V308M224 308L234 318L244 308" stroke="#EEEEEE"/>
<path d="M224 400V414L234 424L244 414V400M224 400V322L234 332L244 322V400M224 400L234 410L244 400" stroke="#EEEEEE"/>
<path d="M244 174V188L254 198L264 188V174M244 174V96L254 106L264 96V174M244 174L254 184L264 174" stroke="#EEEEEE"/>
<path d="M244 82V96L254 106L264 96V82M244 82V4L254 14L264 4V82M244 82L254 92L264 82" stroke="#EEEEEE"/>
<path d="M244 266V280L254 290L264 280V266M244 266V188L254 198L264 188V266M244 266L254 276L264 266" stroke="#EEEEEE"/>
<path d="M244 358V372L254 382L264 372V358M244 358V280L254 290L264 280V358M244 358L254 368L264 358" stroke="#EEEEEE"/>
<path d="M244 450V464L254 474L264 464V450M244 450V372L254 382L264 372V450M244 450L254 460L264 450" stroke="#EEEEEE"/>
<path d="M264 124V138L274 148L284 138V124M264 124V46L274 56L284 46V124M264 124L274 134L284 124" stroke="#EEEEEE"/>
<path d="M264 32V46L274 56L284 46V32M264 32V-46L274 -36L284 -46V32M264 32L274 42L284 32" stroke="#EEEEEE"/>
<path d="M264 216V230L274 240L284 230V216M264 216V138L274 148L284 138V216M264 216L274 226L284 216" stroke="#EEEEEE"/>
<path d="M264 308V322L274 332L284 322V308M264 308V230L274 240L284 230V308M264 308L274 318L284 308" stroke="#EEEEEE"/>
<path d="M264 400V414L274 424L284 414V400M264 400V322L274 332L284 322V400M264 400L274 410L284 400" stroke="#EEEEEE"/>
<path d="M284 174V188L294 198L304 188V174M284 174V96L294 106L304 96V174M284 174L294 184L304 174" stroke="#EEEEEE"/>
<path d="M284 82V96L294 106L304 96V82M284 82V4L294 14L304 4V82M284 82L294 92L304 82" stroke="#EEEEEE"/>
<path d="M284 266V280L294 290L304 280V266M284 266V188L294 198L304 188V266M284 266L294 276L304 266" stroke="#EEEEEE"/>
<path d="M284 358V372L294 382L304 372V358M284 358V280L294 290L304 280V358M284 358L294 368L304 358" stroke="#EEEEEE"/>
<path d="M284 450V464L294 474L304 464V450M284 450V372L294 382L304 372V450M284 450L294 460L304 450" stroke="#EEEEEE"/>
<path d="M304 124V138L314 148L324 138V124M304 124V46L314 56L324 46V124M304 124L314 134L324 124" stroke="#EEEEEE"/>
<path d="M304 32V46L314 56L324 46V32M304 32V-46L314 -36L324 -46V32M304 32L314 42L324 32" stroke="#EEEEEE"/>
<path d="M304 216V230L314 240L324 230V216M304 216V138L314 148L324 138V216M304 216L314 226L324 216" stroke="#EEEEEE"/>
<path d="M304 308V322L314 332L324 322V308M304 308V230L314 240L324 230V308M304 308L314 318L324 308" stroke="#EEEEEE"/>
<path d="M304 400V414L314 424L324 414V400M304 400V322L314 332L324 322V400M304 400L314 410L324 400" stroke="#EEEEEE"/>
<path d="M324 174V188L334 198L344 188V174M324 174V96L334 106L344 96V174M324 174L334 184L344 174" stroke="#EEEEEE"/>
<path d="M324 82V96L334 106L344 96V82M324 82V4L334 14L344 4V82M324 82L334 92L344 82" stroke="#EEEEEE"/>
<path d="M324 266V280L334 290L344 280V266M324 266V188L334 198L344 188V266M324 266L334 276L344 266" stroke="#EEEEEE"/>
<path d="M324 358V372L334 382L344 372V358M324 358V280L334 290L344 280V358M324 358L334 368L344 358" stroke="#EEEEEE"/>
<path d="M324 450V464L334 474L344 464V450M324 450V372L334 382L344 372V450M324 450L334 460L344 450" stroke="#EEEEEE"/>
<path d="M344 124V138L354 148L364 138V124M344 124V46L354 56L364 46V124M344 124L354 134L364 124" stroke="#EEEEEE"/>
<path d="M344 32V46L354 56L364 46V32M344 32V-46L354 -36L364 -46V32M344 32L354 42L364 32" stroke="#EEEEEE"/>
<path d="M344 216V230L354 240L364 230V216M344 216V138L354 148L364 138V216M344 216L354 226L364 216" stroke="#EEEEEE"/>
<path d="M344 308V322L354 332L364 322V308M344 308V230L354 240L364 230V308M344 308L354 318L364 308" stroke="#EEEEEE"/>
<path d="M344 400V414L354 424L364 414V400M344 400V322L354 332L364 322V400M344 400L354 410L364 400" stroke="#EEEEEE"/>
<path d="M364 174V188L374 198L384 188V174M364 174V96L374 106L384 96V174M364 174L374 184L384 174" stroke="#EEEEEE"/>
<path d="M364 82V96L374 106L384 96V82M364 82V4L374 14L384 4V82M364 82L374 92L384 82" stroke="#EEEEEE"/>
<path d="M364 266V280L374 290L384 280V266M364 266V188L374 198L384 188V266M364 266L374 276L384 266" stroke="#EEEEEE"/>
<path d="M364 358V372L374 382L384 372V358M364 358V280L374 290L384 280V358M364 358L374 368L384 358" stroke="#EEEEEE"/>
<path d="M364 450V464L374 474L384 464V450M364 450V372L374 382L384 372V450M364 450L374 460L384 450" stroke="#EEEEEE"/>
<path d="M384 124V138L394 148L404 138V124M384 124V46L394 56L404 46V124M384 124L394 134L404 124" stroke="#EEEEEE"/>
<path d="M384 32V46L394 56L404 46V32M384 32V-46L394 -36L404 -46V32M384 32L394 42L404 32" stroke="#EEEEEE"/>
<path d="M384 216V230L394 240L404 230V216M384 216V138L394 148L404 138V216M384 216L394 226L404 216" stroke="#EEEEEE"/>
<path d="M384 308V322L394 332L404 322V308M384 308V230L394 240L404 230V308M384 308L394 318L404 308" stroke="#EEEEEE"/>
<path d="M384 400V414L394 424L404 414V400M384 400V322L394 332L404 322V400M384 400L394 410L404 400" stroke="#EEEEEE"/>
<path d="M404 174V188L414 198L424 188V174M404 174V96L414 106L424 96V174M404 174L414 184L424 174" stroke="#EEEEEE"/>
<path d="M404 82V96L414 106L424 96V82M404 82V4L414 14L424 4V82M404 82L414 92L424 82" stroke="#EEEEEE"/>
<path d="M404 266V280L414 290L424 280V266M404 266V188L414 198L424 188V266M404 266L414 276L424 266" stroke="#EEEEEE"/>
<path d="M404 358V372L414 382L424 372V358M404 358V280L414 290L424 280V358M404 358L414 368L424 358" stroke="#EEEEEE"/>
<path d="M404 450V464L414 474L424 464V450M404 450V372L414 382L424 372V450M404 450L414 460L424 450" stroke="#EEEEEE"/>
<path d="M424 124V138L434 148L444 138V124M424 124V46L434 56L444 46V124M424 124L434 134L444 124" stroke="#EEEEEE"/>
<path d="M424 32V46L434 56L444 46V32M424 32V-46L434 -36L444 -46V32M424 32L434 42L444 32" stroke="#EEEEEE"/>
<path d="M424 216V230L434 240L444 230V216M424 216V138L434 148L444 138V216M424 216L434 226L444 216" stroke="#EEEEEE"/>
<path d="M424 308V322L434 332L444 322V308M424 308V230L434 240L444 230V308M424 308L434 318L444 308" stroke="#EEEEEE"/>
<path d="M424 400V414L434 424L444 414V400M424 400V322L434 332L444 322V400M424 400L434 410L444 400" stroke="#EEEEEE"/>
<path d="M444 174V188L454 198L464 188V174M444 174V96L454 106L464 96V174M444 174L454 184L464 174" stroke="#EEEEEE"/>
<path d="M444 82V96L454 106L464 96V82M444 82V4L454 14L464 4V82M444 82L454 92L464 82" stroke="#EEEEEE"/>
<path d="M444 266V280L454 290L464 280V266M444 266V188L454 198L464 188V266M444 266L454 276L464 266" stroke="#EEEEEE"/>
<path d="M444 358V372L454 382L464 372V358M444 358V280L454 290L464 280V358M444 358L454 368L464 358" stroke="#EEEEEE"/>
<path d="M444 450V464L454 474L464 464V450M444 450V372L454 382L464 372V450M444 450L454 460L464 450" stroke="#EEEEEE"/>
<path d="M464 124V138L474 148L484 138V124M464 124V46L474 56L484 46V124M464 124L474 134L484 124" stroke="#EEEEEE"/>
<path d="M464 32V46L474 56L484 46V32M464 32V-46L474 -36L484 -46V32M464 32L474 42L484 32" stroke="#EEEEEE"/>
<path d="M464 216V230L474 240L484 230V216M464 216V138L474 148L484 138V216M464 216L474 226L484 216" stroke="#EEEEEE"/>
<path d="M464 308V322L474 332L484 322V308M464 308V230L474 240L484 230V308M464 308L474 318L484 308" stroke="#EEEEEE"/>
<path d="M464 400V414L474 424L484 414V400M464 400V322L474 332L484 322V400M464 400L474 410L484 400" stroke="#EEEEEE"/>
<path d="M484 174V188L494 198L504 188V174M484 174V96L494 106L504 96V174M484 174L494 184L504 174" stroke="#EEEEEE"/>
<path d="M484 82V96L494 106L504 96V82M484 82V4L494 14L504 4V82M484 82L494 92L504 82" stroke="#EEEEEE"/>
<path d="M484 266V280L494 290L504 280V266M484 266V188L494 198L504 188V266M484 266L494 276L504 266" stroke="#EEEEEE"/>
<path d="M484 358V372L494 382L504 372V358M484 358V280L494 290L504 280V358M484 358L494 368L504 358" stroke="#EEEEEE"/>
<path d="M484 450V464L494 474L504 464V450M484 450V372L494 382L504 372V450M484 450L494 460L504 450" stroke="#EEEEEE"/>
<path d="M504 124V138L514 148L524 138V124M504 124V46L514 56L524 46V124M504 124L514 134L524 124" stroke="#EEEEEE"/>
<path d="M504 32V46L514 56L524 46V32M504 32V-46L514 -36L524 -46V32M504 32L514 42L524 32" stroke="#EEEEEE"/>
<path d="M504 216V230L514 240L524 230V216M504 216V138L514 148L524 138V216M504 216L514 226L524 216" stroke="#EEEEEE"/>
<path d="M504 308V322L514 332L524 322V308M504 308V230L514 240L524 230V308M504 308L514 318L524 308" stroke="#EEEEEE"/>
<path d="M504 400V414L514 424L524 414V400M504 400V322L514 332L524 322V400M504 400L514 410L524 400" stroke="#EEEEEE"/>
<path d="M524 174V188L534 198L544 188V174M524 174V96L534 106L544 96V174M524 174L534 184L544 174" stroke="#EEEEEE"/>
<path d="M524 82V96L534 106L544 96V82M524 82V4L534 14L544 4V82M524 82L534 92L544 82" stroke="#EEEEEE"/>
<path d="M524 266V280L534 290L544 280V266M524 266V188L534 198L544 188V266M524 266L534 276L544 266" stroke="#EEEEEE"/>
<path d="M524 358V372L534 382L544 372V358M524 358V280L534 290L544 280V358M524 358L534 368L544 358" stroke="#EEEEEE"/>
<path d="M524 450V464L534 474L544 464V450M524 450V372L534 382L544 372V450M524 450L534 460L544 450" stroke="#EEEEEE"/>
<path d="M544 124V138L554 148L564 138V124M544 124V46L554 56L564 46V124M544 124L554 134L564 124" stroke="#EEEEEE"/>
<path d="M544 32V46L554 56L564 46V32M544 32V-46L554 -36L564 -46V32M544 32L554 42L564 32" stroke="#EEEEEE"/>
<path d="M544 216V230L554 240L564 230V216M544 216V138L554 148L564 138V216M544 216L554 226L564 216" stroke="#EEEEEE"/>
<path d="M544 308V322L554 332L564 322V308M544 308V230L554 240L564 230V308M544 308L554 318L564 308" stroke="#EEEEEE"/>
<path d="M544 400V414L554 424L564 414V400M544 400V322L554 332L564 322V400M544 400L554 410L564 400" stroke="#EEEEEE"/>
<path d="M564 174V188L574 198L584 188V174M564 174V96L574 106L584 96V174M564 174L574 184L584 174" stroke="#EEEEEE"/>
<path d="M564 82V96L574 106L584 96V82M564 82V4L574 14L584 4V82M564 82L574 92L584 82" stroke="#EEEEEE"/>
<path d="M564 266V280L574 290L584 280V266M564 266V188L574 198L584 188V266M564 266L574 276L584 266" stroke="#EEEEEE"/>
<path d="M564 358V372L574 382L584 372V358M564 358V280L574 290L584 280V358M564 358L574 368L584 358" stroke="#EEEEEE"/>
<path d="M564 450V464L574 474L584 464V450M564 450V372L574 382L584 372V450M564 450L574 460L584 450" stroke="#EEEEEE"/>
<path d="M584 124V138L594 148L604 138V124M584 124V46L594 56L604 46V124M584 124L594 134L604 124" stroke="#EEEEEE"/>
<path d="M584 32V46L594 56L604 46V32M584 32V-46L594 -36L604 -46V32M584 32L594 42L604 32" stroke="#EEEEEE"/>
<path d="M584 216V230L594 240L604 230V216M584 216V138L594 148L604 138V216M584 216L594 226L604 216" stroke="#EEEEEE"/>
<path d="M584 308V322L594 332L604 322V308M584 308V230L594 240L604 230V308M584 308L594 318L604 308" stroke="#EEEEEE"/>
<path d="M584 400V414L594 424L604 414V400M584 400V322L594 332L604 322V400M584 400L594 410L604 400" stroke="#EEEEEE"/>
<path d="M604 174V188L614 198L624 188V174M604 174V96L614 106L624 96V174M604 174L614 184L624 174" stroke="#EEEEEE"/>
<path d="M604 82V96L614 106L624 96V82M604 82V4L614 14L624 4V82M604 82L614 92L624 82" stroke="#EEEEEE"/>
<path d="M604 266V280L614 290L624 280V266M604 266V188L614 198L624 188V266M604 266L614 276L624 266" stroke="#EEEEEE"/>
<path d="M604 358V372L614 382L624 372V358M604 358V280L614 290L624 280V358M604 358L614 368L624 358" stroke="#EEEEEE"/>
<path d="M604 450V464L614 474L624 464V450M604 450V372L614 382L624 372V450M604 450L614 460L624 450" stroke="#EEEEEE"/>
<path d="M624 124V138L634 148L644 138V124M624 124V46L634 56L644 46V124M624 124L634 134L644 124" stroke="#EEEEEE"/>
<path d="M624 32V46L634 56L644 46V32M624 32V-46L634 -36L644 -46V32M624 32L634 42L644 32" stroke="#EEEEEE"/>
<path d="M624 216V230L634 240L644 230V216M624 216V138L634 148L644 138V216M624 216L634 226L644 216" stroke="#EEEEEE"/>
<path d="M624 308V322L634 332L644 322V308M624 308V230L634 240L644 230V308M624 308L634 318L644 308" stroke="#EEEEEE"/>
<path d="M624 400V414L634 424L644 414V400M624 400V322L634 332L644 322V400M624 400L634 410L644 400" stroke="#EEEEEE"/>
<path d="M644 174V188L654 198L664 188V174M644 174V96L654 106L664 96V174M644 174L654 184L664 174" stroke="#EEEEEE"/>
<path d="M644 82V96L654 106L664 96V82M644 82V4L654 14L664 4V82M644 82L654 92L664 82" stroke="#EEEEEE"/>
<path d="M644 266V280L654 290L664 280V266M644 266V188L654 198L664 188V266M644 266L654 276L664 266" stroke="#EEEEEE"/>
<path d="M644 358V372L654 382L664 372V358M644 358V280L654 290L664 280V358M644 358L654 368L664 358" stroke="#EEEEEE"/>
<path d="M644 450V464L654 474L664 464V450M644 450V372L654 382L664 372V450M644 450L654 460L664 450" stroke="#EEEEEE"/>
<path d="M664 124V138L674 148L684 138V124M664 124V46L674 56L684 46V124M664 124L674 134L684 124" stroke="#EEEEEE"/>
<path d="M664 32V46L674 56L684 46V32M664 32V-46L674 -36L684 -46V32M664 32L674 42L684 32" stroke="#EEEEEE"/>
<path d="M664 216V230L674 240L684 230V216M664 216V138L674 148L684 138V216M664 216L674 226L684 216" stroke="#EEEEEE"/>
<path d="M664 308V322L674 332L684 322V308M664 308V230L674 240L684 230V308M664 308L674 318L684 308" stroke="#EEEEEE"/>
<path d="M664 400V414L674 424L684 414V400M664 400V322L674 332L684 322V400M664 400L674 410L684 400" stroke="#EEEEEE"/>
<path d="M684 174V188L694 198L704 188V174M684 174V96L694 106L704 96V174M684 174L694 184L704 174" stroke="#EEEEEE"/>
<path d="M684 82V96L694 106L704 96V82M684 82V4L694 14L704 4V82M684 82L694 92L704 82" stroke="#EEEEEE"/>
<path d="M684 266V280L694 290L704 280V266M684 266V188L694 198L704 188V266M684 266L694 276L704 266" stroke="#EEEEEE"/>
<path d="M684 358V372L694 382L704 372V358M684 358V280L694 290L704 280V358M684 358L694 368L704 358" stroke="#EEEEEE"/>
<path d="M684 450V464L694 474L704 464V450M684 450V372L694 382L704 372V450M684 450L694 460L704 450" stroke="#EEEEEE"/>
<path d="M704 124V138L714 148L724 138V124M704 124V46L714 56L724 46V124M704 124L714 134L724 124" stroke="#EEEEEE"/>
<path d="M704 32V46L714 56L724 46V32M704 32V-46L714 -36L724 -46V32M704 32L714 42L724 32" stroke="#EEEEEE"/>
<path d="M704 216V230L714 240L724 230V216M704 216V138L714 148L724 138V216M704 216L714 226L724 216" stroke="#EEEEEE"/>
<path d="M704 308V322L714 332L724 322V308M704 308V230L714 240L724 230V308M704 308L714 318L724 308" stroke="#EEEEEE"/>
<path d="M704 400V414L714 424L724 414V400M704 400V322L714 332L724 322V400M704 400L714 410L724 400" stroke="#EEEEEE"/>
<path d="M724 174V188L734 198L744 188V174M724 174V96L734 106L744 96V174M724 174L734 184L744 174" stroke="#EEEEEE"/>
<path d="M724 82V96L734 106L744 96V82M724 82V4L734 14L744 4V82M724 82L734 92L744 82" stroke="#EEEEEE"/>
<path d="M724 266V280L734 290L744 280V266M724 266V188L734 198L744 188V266M724 266L734 276L744 266" stroke="#EEEEEE"/>
<path d="M724 358V372L734 382L744 372V358M724 358V280L734 290L744 280V358M724 358L734 368L744 358" stroke="#EEEEEE"/>
<path d="M724 450V464L734 474L744 464V450M724 450V372L734 382L744 372V450M724 450L734 460L744 450" stroke="#EEEEEE"/>
<path d="M744 124V138L754 148L764 138V124M744 124V46L754 56L764 46V124M744 124L754 134L764 124" stroke="#EEEEEE"/>
<path d="M744 32V46L754 56L764 46V32M744 32V-46L754 -36L764 -46V32M744 32L754 42L764 32" stroke="#EEEEEE"/>
<path d="M744 216V230L754 240L764 230V216M744 216V138L754 148L764 138V216M744 216L754 226L764 216" stroke="#EEEEEE"/>
<path d="M744 308V322L754 332L764 322V308M744 308V230L754 240L764 230V308M744 308L754 318L764 308" stroke="#EEEEEE"/>
<path d="M744 400V414L754 424L764 414V400M744 400V322L754 332L764 322V400M744 400L754 410L764 400" stroke="#EEEEEE"/>
<path d="M764 174V188L774 198L784 188V174M764 174V96L774 106L784 96V174M764 174L774 184L784 174" stroke="#EEEEEE"/>
<path d="M764 82V96L774 106L784 96V82M764 82V4L774 14L784 4V82M764 82L774 92L784 82" stroke="#EEEEEE"/>
<path d="M764 266V280L774 290L784 280V266M764 266V188L774 198L784 188V266M764 266L774 276L784 266" stroke="#EEEEEE"/>
<path d="M764 358V372L774 382L784 372V358M764 358V280L774 290L784 280V358M764 358L774 368L784 358" stroke="#EEEEEE"/>
<path d="M764 450V464L774 474L784 464V450M764 450V372L774 382L784 372V450M764 450L774 460L784 450" stroke="#EEEEEE"/>
<path d="M784 124V138L794 148L804 138V124M784 124V46L794 56L804 46V124M784 124L794 134L804 124" stroke="#EEEEEE"/>
<path d="M784 32V46L794 56L804 46V32M784 32V-46L794 -36L804 -46V32M784 32L794 42L804 32" stroke="#EEEEEE"/>
<path d="M784 216V230L794 240L804 230V216M784 216V138L794 148L804 138V216M784 216L794 226L804 216" stroke="#EEEEEE"/>
<path d="M784 308V322L794 332L804 322V308M784 308V230L794 240L804 230V308M784 308L794 318L804 308" stroke="#EEEEEE"/>
<path d="M784 400V414L794 424L804 414V400M784 400V322L794 332L804 322V400M784 400L794 410L804 400" stroke="#EEEEEE"/>
<path d="M804 174V188L814 198L824 188V174M804 174V96L814 106L824 96V174M804 174L814 184L824 174" stroke="#EEEEEE"/>
<path d="M804 82V96L814 106L824 96V82M804 82V4L814 14L824 4V82M804 82L814 92L824 82" stroke="#EEEEEE"/>
<path d="M804 266V280L814 290L824 280V266M804 266V188L814 198L824 188V266M804 266L814 276L824 266" stroke="#EEEEEE"/>
<path d="M804 358V372L814 382L824 372V358M804 358V280L814 290L824 280V358M804 358L814 368L824 358" stroke="#EEEEEE"/>
<path d="M804 450V464L814 474L824 464V450M804 450V372L814 382L824 372V450M804 450L814 460L824 450" stroke="#EEEEEE"/>
<path d="M824 124V138L834 148L844 138V124M824 124V46L834 56L844 46V124M824 124L834 134L844 124" stroke="#EEEEEE"/>
<path d="M824 32V46L834 56L844 46V32M824 32V-46L834 -36L844 -46V32M824 32L834 42L844 32" stroke="#EEEEEE"/>
<path d="M824 216V230L834 240L844 230V216M824 216V138L834 148L844 138V216M824 216L834 226L844 216" stroke="#EEEEEE"/>
<path d="M824 308V322L834 332L844 322V308M824 308V230L834 240L844 230V308M824 308L834 318L844 308" stroke="#EEEEEE"/>
<path d="M824 400V414L834 424L844 414V400M824 400V322L834 332L844 322V400M824 400L834 410L844 400" stroke="#EEEEEE"/>
<path d="M844 174V188L854 198L864 188V174M844 174V96L854 106L864 96V174M844 174L854 184L864 174" stroke="#EEEEEE"/>
<path d="M844 82V96L854 106L864 96V82M844 82V4L854 14L864 4V82M844 82L854 92L864 82" stroke="#EEEEEE"/>
<path d="M844 266V280L854 290L864 280V266M844 266V188L854 198L864 188V266M844 266L854 276L864 266" stroke="#EEEEEE"/>
<path d="M844 358V372L854 382L864 372V358M844 358V280L854 290L864 280V358M844 358L854 368L864 358" stroke="#EEEEEE"/>
<path d="M844 450V464L854 474L864 464V450M844 450V372L854 382L864 372V450M844 450L854 460L864 450" stroke="#EEEEEE"/>
<path d="M864 124V138L874 148L884 138V124M864 124V46L874 56L884 46V124M864 124L874 134L884 124" stroke="#EEEEEE"/>
<path d="M864 32V46L874 56L884 46V32M864 32V-46L874 -36L884 -46V32M864 32L874 42L884 32" stroke="#EEEEEE"/>
<path d="M864 216V230L874 240L884 230V216M864 216V138L874 148L884 138V216M864 216L874 226L884 216" stroke="#EEEEEE"/>
<path d="M864 308V322L874 332L884 322V308M864 308V230L874 240L884 230V308M864 308L874 318L884 308" stroke="#EEEEEE"/>
<path d="M864 400V414L874 424L884 414V400M864 400V322L874 332L884 322V400M864 400L874 410L884 400" stroke="#EEEEEE"/>
<path d="M884 174V188L894 198L904 188V174M884 174V96L894 106L904 96V174M884 174L894 184L904 174" stroke="#EEEEEE"/>
<path d="M884 82V96L894 106L904 96V82M884 82V4L894 14L904 4V82M884 82L894 92L904 82" stroke="#EEEEEE"/>
<path d="M884 266V280L894 290L904 280V266M884 266V188L894 198L904 188V266M884 266L894 276L904 266" stroke="#EEEEEE"/>
<path d="M884 358V372L894 382L904 372V358M884 358V280L894 290L904 280V358M884 358L894 368L904 358" stroke="#EEEEEE"/>
<path d="M884 450V464L894 474L904 464V450M884 450V372L894 382L904 372V450M884 450L894 460L904 450" stroke="#EEEEEE"/>
<path d="M904 124V138L914 148L924 138V124M904 124V46L914 56L924 46V124M904 124L914 134L924 124" stroke="#EEEEEE"/>
<path d="M904 32V46L914 56L924 46V32M904 32V-46L914 -36L924 -46V32M904 32L914 42L924 32" stroke="#EEEEEE"/>
<path d="M904 216V230L914 240L924 230V216M904 216V138L914 148L924 138V216M904 216L914 226L924 216" stroke="#EEEEEE"/>
<path d="M904 308V322L914 332L924 322V308M904 308V230L914 240L924 230V308M904 308L914 318L924 308" stroke="#EEEEEE"/>
<path d="M904 400V414L914 424L924 414V400M904 400V322L914 332L924 322V400M904 400L914 410L924 400" stroke="#EEEEEE"/>
<path d="M924 174V188L934 198L944 188V174M924 174V96L934 106L944 96V174M924 174L934 184L944 174" stroke="#EEEEEE"/>
<path d="M924 82V96L934 106L944 96V82M924 82V4L934 14L944 4V82M924 82L934 92L944 82" stroke="#EEEEEE"/>
<path d="M924 266V280L934 290L944 280V266M924 266V188L934 198L944 188V266M924 266L934 276L944 266" stroke="#EEEEEE"/>
<path d="M924 358V372L934 382L944 372V358M924 358V280L934 290L944 280V358M924 358L934 368L944 358" stroke="#EEEEEE"/>
<path d="M924 450V464L934 474L944 464V450M924 450V372L934 382L944 372V450M924 450L934 460L944 450" stroke="#EEEEEE"/>
<path d="M944 124V138L954 148L964 138V124M944 124V46L954 56L964 46V124M944 124L954 134L964 124" stroke="#EEEEEE"/>
<path d="M944 32V46L954 56L964 46V32M944 32V-46L954 -36L964 -46V32M944 32L954 42L964 32" stroke="#EEEEEE"/>
<path d="M944 216V230L954 240L964 230V216M944 216V138L954 148L964 138V216M944 216L954 226L964 216" stroke="#EEEEEE"/>
<path d="M944 308V322L954 332L964 322V308M944 308V230L954 240L964 230V308M944 308L954 318L964 308" stroke="#EEEEEE"/>
<path d="M944 400V414L954 424L964 414V400M944 400V322L954 332L964 322V400M944 400L954 410L964 400" stroke="#EEEEEE"/>
<path d="M964 174V188L974 198L984 188V174M964 174V96L974 106L984 96V174M964 174L974 184L984 174" stroke="#EEEEEE"/>
<path d="M964 82V96L974 106L984 96V82M964 82V4L974 14L984 4V82M964 82L974 92L984 82" stroke="#EEEEEE"/>
<path d="M964 266V280L974 290L984 280V266M964 266V188L974 198L984 188V266M964 266L974 276L984 266" stroke="#EEEEEE"/>
<path d="M964 358V372L974 382L984 372V358M964 358V280L974 290L984 280V358M964 358L974 368L984 358" stroke="#EEEEEE"/>
<path d="M964 450V464L974 474L984 464V450M964 450V372L974 382L984 372V450M964 450L974 460L984 450" stroke="#EEEEEE"/>
<path d="M984 124V138L994 148L1004 138V124M984 124V46L994 56L1004 46V124M984 124L994 134L1004 124" stroke="#EEEEEE"/>
<path d="M984 32V46L994 56L1004 46V32M984 32V-46L994 -36L1004 -46V32M984 32L994 42L1004 32" stroke="#EEEEEE"/>
<path d="M984 216V230L994 240L1004 230V216M984 216V138L994 148L1004 138V216M984 216L994 226L1004 216" stroke="#EEEEEE"/>
<path d="M984 308V322L994 332L1004 322V308M984 308V230L994 240L1004 230V308M984 308L994 318L1004 308" stroke="#EEEEEE"/>
<path d="M984 400V414L994 424L1004 414V400M984 400V322L994 332L1004 322V400M984 400L994 410L1004 400" stroke="#EEEEEE"/>
<path d="M1004 174V188L1014 198L1024 188V174M1004 174V96L1014 106L1024 96V174M1004 174L1014 184L1024 174" stroke="#EEEEEE"/>
<path d="M1004 82V96L1014 106L1024 96V82M1004 82V4L1014 14L1024 4V82M1004 82L1014 92L1024 82" stroke="#EEEEEE"/>
<path d="M1004 266V280L1014 290L1024 280V266M1004 266V188L1014 198L1024 188V266M1004 266L1014 276L1024 266" stroke="#EEEEEE"/>
<path d="M1004 358V372L1014 382L1024 372V358M1004 358V280L1014 290L1024 280V358M1004 358L1014 368L1024 358" stroke="#EEEEEE"/>
<path d="M1004 450V464L1014 474L1024 464V450M1004 450V372L1014 382L1024 372V450M1004 450L1014 460L1024 450" stroke="#EEEEEE"/>
<path d="M1024 124V138L1034 148L1044 138V124M1024 124V46L1034 56L1044 46V124M1024 124L1034 134L1044 124" stroke="#EEEEEE"/>
<path d="M1024 32V46L1034 56L1044 46V32M1024 32V-46L1034 -36L1044 -46V32M1024 32L1034 42L1044 32" stroke="#EEEEEE"/>
<path d="M1024 216V230L1034 240L1044 230V216M1024 216V138L1034 148L1044 138V216M1024 216L1034 226L1044 216" stroke="#EEEEEE"/>
<path d="M1024 308V322L1034 332L1044 322V308M1024 308V230L1034 240L1044 230V308M1024 308L1034 318L1044 308" stroke="#EEEEEE"/>
<path d="M1024 400V414L1034 424L1044 414V400M1024 400V322L1034 332L1044 322V400M1024 400L1034 410L1044 400" stroke="#EEEEEE"/>
<path d="M1044 174V188L1054 198L1064 188V174M1044 174V96L1054 106L1064 96V174M1044 174L1054 184L1064 174" stroke="#EEEEEE"/>
<path d="M1044 82V96L1054 106L1064 96V82M1044 82V4L1054 14L1064 4V82M1044 82L1054 92L1064 82" stroke="#EEEEEE"/>
<path d="M1044 266V280L1054 290L1064 280V266M1044 266V188L1054 198L1064 188V266M1044 266L1054 276L1064 266" stroke="#EEEEEE"/>
<path d="M1044 358V372L1054 382L1064 372V358M1044 358V280L1054 290L1064 280V358M1044 358L1054 368L1064 358" stroke="#EEEEEE"/>
<path d="M1044 450V464L1054 474L1064 464V450M1044 450V372L1054 382L1064 372V450M1044 450L1054 460L1064 450" stroke="#EEEEEE"/>
<path d="M1064 124V138L1074 148L1084 138V124M1064 124V46L1074 56L1084 46V124M1064 124L1074 134L1084 124" stroke="#EEEEEE"/>
<path d="M1064 32V46L1074 56L1084 46V32M1064 32V-46L1074 -36L1084 -46V32M1064 32L1074 42L1084 32" stroke="#EEEEEE"/>
<path d="M1064 216V230L1074 240L1084 230V216M1064 216V138L1074 148L1084 138V216M1064 216L1074 226L1084 216" stroke="#EEEEEE"/>
<path d="M1064 308V322L1074 332L1084 322V308M1064 308V230L1074 240L1084 230V308M1064 308L1074 318L1084 308" stroke="#EEEEEE"/>
<path d="M1064 400V414L1074 424L1084 414V400M1064 400V322L1074 332L1084 322V400M1064 400L1074 410L1084 400" stroke="#EEEEEE"/>
<path d="M1084 174V188L1094 198L1104 188V174M1084 174V96L1094 106L1104 96V174M1084 174L1094 184L1104 174" stroke="#EEEEEE"/>
<path d="M1084 82V96L1094 106L1104 96V82M1084 82V4L1094 14L1104 4V82M1084 82L1094 92L1104 82" stroke="#EEEEEE"/>
<path d="M1084 266V280L1094 290L1104 280V266M1084 266V188L1094 198L1104 188V266M1084 266L1094 276L1104 266" stroke="#EEEEEE"/>
<path d="M1084 358V372L1094 382L1104 372V358M1084 358V280L1094 290L1104 280V358M1084 358L1094 368L1104 358" stroke="#EEEEEE"/>
<path d="M1084 450V464L1094 474L1104 464V450M1084 450V372L1094 382L1104 372V450M1084 450L1094 460L1104 450" stroke="#EEEEEE"/>
<path d="M1104 124V138L1114 148L1124 138V124M1104 124V46L1114 56L1124 46V124M1104 124L1114 134L1124 124" stroke="#EEEEEE"/>
<path d="M1104 32V46L1114 56L1124 46V32M1104 32V-46L1114 -36L1124 -46V32M1104 32L1114 42L1124 32" stroke="#EEEEEE"/>
<path d="M1104 216V230L1114 240L1124 230V216M1104 216V138L1114 148L1124 138V216M1104 216L1114 226L1124 216" stroke="#EEEEEE"/>
<path d="M1104 308V322L1114 332L1124 322V308M1104 308V230L1114 240L1124 230V308M1104 308L1114 318L1124 308" stroke="#EEEEEE"/>
<path d="M1104 400V414L1114 424L1124 414V400M1104 400V322L1114 332L1124 322V400M1104 400L1114 410L1124 400" stroke="#EEEEEE"/>
<path d="M1124 174V188L1134 198L1144 188V174M1124 174V96L1134 106L1144 96V174M1124 174L1134 184L1144 174" stroke="#EEEEEE"/>
<path d="M1124 82V96L1134 106L1144 96V82M1124 82V4L1134 14L1144 4V82M1124 82L1134 92L1144 82" stroke="#EEEEEE"/>
<path d="M1124 266V280L1134 290L1144 280V266M1124 266V188L1134 198L1144 188V266M1124 266L1134 276L1144 266" stroke="#EEEEEE"/>
<path d="M1124 358V372L1134 382L1144 372V358M1124 358V280L1134 290L1144 280V358M1124 358L1134 368L1144 358" stroke="#EEEEEE"/>
<path d="M1124 450V464L1134 474L1144 464V450M1124 450V372L1134 382L1144 372V450M1124 450L1134 460L1144 450" stroke="#EEEEEE"/>
<path d="M1144 124V138L1154 148L1164 138V124M1144 124V46L1154 56L1164 46V124M1144 124L1154 134L1164 124" stroke="#EEEEEE"/>
<path d="M1144 32V46L1154 56L1164 46V32M1144 32V-46L1154 -36L1164 -46V32M1144 32L1154 42L1164 32" stroke="#EEEEEE"/>
<path d="M1144 216V230L1154 240L1164 230V216M1144 216V138L1154 148L1164 138V216M1144 216L1154 226L1164 216" stroke="#EEEEEE"/>
<path d="M1144 308V322L1154 332L1164 322V308M1144 308V230L1154 240L1164 230V308M1144 308L1154 318L1164 308" stroke="#EEEEEE"/>
<path d="M1144 400V414L1154 424L1164 414V400M1144 400V322L1154 332L1164 322V400M1144 400L1154 410L1164 400" stroke="#EEEEEE"/>
<path d="M1164 174V188L1174 198L1184 188V174M1164 174V96L1174 106L1184 96V174M1164 174L1174 184L1184 174" stroke="#EEEEEE"/>
<path d="M1164 82V96L1174 106L1184 96V82M1164 82V4L1174 14L1184 4V82M1164 82L1174 92L1184 82" stroke="#EEEEEE"/>
<path d="M1164 266V280L1174 290L1184 280V266M1164 266V188L1174 198L1184 188V266M1164 266L1174 276L1184 266" stroke="#EEEEEE"/>
<path d="M1164 358V372L1174 382L1184 372V358M1164 358V280L1174 290L1184 280V358M1164 358L1174 368L1184 358" stroke="#EEEEEE"/>
<path d="M1164 450V464L1174 474L1184 464V450M1164 450V372L1174 382L1184 372V450M1164 450L1174 460L1184 450" stroke="#EEEEEE"/>
<path d="M1184 124V138L1194 148L1204 138V124M1184 124V46L1194 56L1204 46V124M1184 124L1194 134L1204 124" stroke="#EEEEEE"/>
<path d="M1184 32V46L1194 56L1204 46V32M1184 32V-46L1194 -36L1204 -46V32M1184 32L1194 42L1204 32" stroke="#EEEEEE"/>
<path d="M1184 216V230L1194 240L1204 230V216M1184 216V138L1194 148L1204 138V216M1184 216L1194 226L1204 216" stroke="#EEEEEE"/>
<path d="M1184 308V322L1194 332L1204 322V308M1184 308V230L1194 240L1204 230V308M1184 308L1194 318L1204 308" stroke="#EEEEEE"/>
<path d="M1184 400V414L1194 424L1204 414V400M1184 400V322L1194 332L1204 322V400M1184 400L1194 410L1204 400" stroke="#EEEEEE"/>
<path d="M1204 174V188L1214 198L1224 188V174M1204 174V96L1214 106L1224 96V174M1204 174L1214 184L1224 174" stroke="#EEEEEE"/>
<path d="M1204 82V96L1214 106L1224 96V82M1204 82V4L1214 14L1224 4V82M1204 82L1214 92L1224 82" stroke="#EEEEEE"/>
<path d="M1204 266V280L1214 290L1224 280V266M1204 266V188L1214 198L1224 188V266M1204 266L1214 276L1224 266" stroke="#EEEEEE"/>
<path d="M1204 358V372L1214 382L1224 372V358M1204 358V280L1214 290L1224 280V358M1204 358L1214 368L1224 358" stroke="#EEEEEE"/>
<path d="M1204 450V464L1214 474L1224 464V450M1204 450V372L1214 382L1224 372V450M1204 450L1214 460L1224 450" stroke="#EEEEEE"/>
<path d="M1224 124V138L1234 148L1244 138V124M1224 124V46L1234 56L1244 46V124M1224 124L1234 134L1244 124" stroke="#EEEEEE"/>
<path d="M1224 32V46L1234 56L1244 46V32M1224 32V-46L1234 -36L1244 -46V32M1224 32L1234 42L1244 32" stroke="#EEEEEE"/>
<path d="M1224 216V230L1234 240L1244 230V216M1224 216V138L1234 148L1244 138V216M1224 216L1234 226L1244 216" stroke="#EEEEEE"/>
<path d="M1224 308V322L1234 332L1244 322V308M1224 308V230L1234 240L1244 230V308M1224 308L1234 318L1244 308" stroke="#EEEEEE"/>
<path d="M1224 400V414L1234 424L1244 414V400M1224 400V322L1234 332L1244 322V400M1224 400L1234 410L1244 400" stroke="#EEEEEE"/>
<path d="M1244 174V188L1254 198L1264 188V174M1244 174V96L1254 106L1264 96V174M1244 174L1254 184L1264 174" stroke="#EEEEEE"/>
<path d="M1244 82V96L1254 106L1264 96V82M1244 82V4L1254 14L1264 4V82M1244 82L1254 92L1264 82" stroke="#EEEEEE"/>
<path d="M1244 266V280L1254 290L1264 280V266M1244 266V188L1254 198L1264 188V266M1244 266L1254 276L1264 266" stroke="#EEEEEE"/>
<path d="M1244 358V372L1254 382L1264 372V358M1244 358V280L1254 290L1264 280V358M1244 358L1254 368L1264 358" stroke="#EEEEEE"/>
<path d="M1244 450V464L1254 474L1264 464V450M1244 450V372L1254 382L1264 372V450M1244 450L1254 460L1264 450" stroke="#EEEEEE"/>
<path d="M1264 124V138L1274 148L1284 138V124M1264 124V46L1274 56L1284 46V124M1264 124L1274 134L1284 124" stroke="#EEEEEE"/>
<path d="M1264 32V46L1274 56L1284 46V32M1264 32V-46L1274 -36L1284 -46V32M1264 32L1274 42L1284 32" stroke="#EEEEEE"/>
<path d="M1264 216V230L1274 240L1284 230V216M1264 216V138L1274 148L1284 138V216M1264 216L1274 226L1284 216" stroke="#EEEEEE"/>
<path d="M1264 308V322L1274 332L1284 322V308M1264 308V230L1274 240L1284 230V308M1264 308L1274 318L1284 308" stroke="#EEEEEE"/>
<path d="M1264 400V414L1274 424L1284 414V400M1264 400V322L1274 332L1284 322V400M1264 400L1274 410L1284 400" stroke="#EEEEEE"/>
<path d="M1284 174V188L1294 198L1304 188V174M1284 174V96L1294 106L1304 96V174M1284 174L1294 184L1304 174" stroke="#EEEEEE"/>
<path d="M1284 82V96L1294 106L1304 96V82M1284 82V4L1294 14L1304 4V82M1284 82L1294 92L1304 82" stroke="#EEEEEE"/>
<path d="M1284 266V280L1294 290L1304 280V266M1284 266V188L1294 198L1304 188V266M1284 266L1294 276L1304 266" stroke="#EEEEEE"/>
<path d="M1284 358V372L1294 382L1304 372V358M1284 358V280L1294 290L1304 280V358M1284 358L1294 368L1304 358" stroke="#EEEEEE"/>
<path d="M1284 450V464L1294 474L1304 464V450M1284 450V372L1294 382L1304 372V450M1284 450L1294 460L1304 450" stroke="#EEEEEE"/>
<path d="M1304 124V138L1314 148L1324 138V124M1304 124V46L1314 56L1324 46V124M1304 124L1314 134L1324 124" stroke="#EEEEEE"/>
<path d="M1304 32V46L1314 56L1324 46V32M1304 32V-46L1314 -36L1324 -46V32M1304 32L1314 42L1324 32" stroke="#EEEEEE"/>
<path d="M1304 216V230L1314 240L1324 230V216M1304 216V138L1314 148L1324 138V216M1304 216L1314 226L1324 216" stroke="#EEEEEE"/>
<path d="M1304 308V322L1314 332L1324 322V308M1304 308V230L1314 240L1324 230V308M1304 308L1314 318L1324 308" stroke="#EEEEEE"/>
<path d="M1304 400V414L1314 424L1324 414V400M1304 400V322L1314 332L1324 322V400M1304 400L1314 410L1324 400" stroke="#EEEEEE"/>
<path d="M1324 174V188L1334 198L1344 188V174M1324 174V96L1334 106L1344 96V174M1324 174L1334 184L1344 174" stroke="#EEEEEE"/>
<path d="M1324 82V96L1334 106L1344 96V82M1324 82V4L1334 14L1344 4V82M1324 82L1334 92L1344 82" stroke="#EEEEEE"/>
<path d="M1324 266V280L1334 290L1344 280V266M1324 266V188L1334 198L1344 188V266M1324 266L1334 276L1344 266" stroke="#EEEEEE"/>
<path d="M1324 358V372L1334 382L1344 372V358M1324 358V280L1334 290L1344 280V358M1324 358L1334 368L1344 358" stroke="#EEEEEE"/>
<path d="M1324 450V464L1334 474L1344 464V450M1324 450V372L1334 382L1344 372V450M1324 450L1334 460L1344 450" stroke="#EEEEEE"/>
<path d="M1344 124V138L1354 148L1364 138V124M1344 124V46L1354 56L1364 46V124M1344 124L1354 134L1364 124" stroke="#EEEEEE"/>
<path d="M1344 32V46L1354 56L1364 46V32M1344 32V-46L1354 -36L1364 -46V32M1344 32L1354 42L1364 32" stroke="#EEEEEE"/>
<path d="M1344 216V230L1354 240L1364 230V216M1344 216V138L1354 148L1364 138V216M1344 216L1354 226L1364 216" stroke="#EEEEEE"/>
<path d="M1344 308V322L1354 332L1364 322V308M1344 308V230L1354 240L1364 230V308M1344 308L1354 318L1364 308" stroke="#EEEEEE"/>
<path d="M1344 400V414L1354 424L1364 414V400M1344 400V322L1354 332L1364 322V400M1344 400L1354 410L1364 400" stroke="#EEEEEE"/>
<path d="M1364 174V188L1374 198L1384 188V174M1364 174V96L1374 106L1384 96V174M1364 174L1374 184L1384 174" stroke="#EEEEEE"/>
<path d="M1364 82V96L1374 106L1384 96V82M1364 82V4L1374 14L1384 4V82M1364 82L1374 92L1384 82" stroke="#EEEEEE"/>
<path d="M1364 266V280L1374 290L1384 280V266M1364 266V188L1374 198L1384 188V266M1364 266L1374 276L1384 266" stroke="#EEEEEE"/>
<path d="M1364 358V372L1374 382L1384 372V358M1364 358V280L1374 290L1384 280V358M1364 358L1374 368L1384 358" stroke="#EEEEEE"/>
<path d="M1364 450V464L1374 474L1384 464V450M1364 450V372L1374 382L1384 372V450M1364 450L1374 460L1384 450" stroke="#EEEEEE"/>
<path d="M1384 124V138L1394 148L1404 138V124M1384 124V46L1394 56L1404 46V124M1384 124L1394 134L1404 124" stroke="#EEEEEE"/>
<path d="M1384 32V46L1394 56L1404 46V32M1384 32V-46L1394 -36L1404 -46V32M1384 32L1394 42L1404 32" stroke="#EEEEEE"/>
<path d="M1384 216V230L1394 240L1404 230V216M1384 216V138L1394 148L1404 138V216M1384 216L1394 226L1404 216" stroke="#EEEEEE"/>
<path d="M1384 308V322L1394 332L1404 322V308M1384 308V230L1394 240L1404 230V308M1384 308L1394 318L1404 308" stroke="#EEEEEE"/>
<path d="M1384 400V414L1394 424L1404 414V400M1384 400V322L1394 332L1404 322V400M1384 400L1394 410L1404 400" stroke="#EEEEEE"/>
<path d="M1404 174V188L1414 198L1424 188V174M1404 174V96L1414 106L1424 96V174M1404 174L1414 184L1424 174" stroke="#EEEEEE"/>
<path d="M1404 82V96L1414 106L1424 96V82M1404 82V4L1414 14L1424 4V82M1404 82L1414 92L1424 82" stroke="#EEEEEE"/>
<path d="M1404 266V280L1414 290L1424 280V266M1404 266V188L1414 198L1424 188V266M1404 266L1414 276L1424 266" stroke="#EEEEEE"/>
<path d="M1404 358V372L1414 382L1424 372V358M1404 358V280L1414 290L1424 280V358M1404 358L1414 368L1424 358" stroke="#EEEEEE"/>
<path d="M1404 450V464L1414 474L1424 464V450M1404 450V372L1414 382L1424 372V450M1404 450L1414 460L1424 450" stroke="#EEEEEE"/>
<path d="M1424 124V138L1434 148L1444 138V124M1424 124V46L1434 56L1444 46V124M1424 124L1434 134L1444 124" stroke="#EEEEEE"/>
<path d="M1424 32V46L1434 56L1444 46V32M1424 32V-46L1434 -36L1444 -46V32M1424 32L1434 42L1444 32" stroke="#EEEEEE"/>
<path d="M1424 216V230L1434 240L1444 230V216M1424 216V138L1434 148L1444 138V216M1424 216L1434 226L1444 216" stroke="#EEEEEE"/>
<path d="M1424 308V322L1434 332L1444 322V308M1424 308V230L1434 240L1444 230V308M1424 308L1434 318L1444 308" stroke="#EEEEEE"/>
<path d="M1424 400V414L1434 424L1444 414V400M1424 400V322L1434 332L1444 322V400M1424 400L1434 410L1444 400" stroke="#EEEEEE"/>
<path d="M-16 584V598L-6 608L4 598V584M-16 584V506L-6 516L4 506V584M-16 584L-6 594L4 584" stroke="#EEEEEE"/>
<path d="M-16 492V506L-6 516L4 506V492M-16 492V414L-6 424L4 414V492M-16 492L-6 502L4 492" stroke="#EEEEEE"/>
<path d="M-16 676V690L-6 700L4 690V676M-16 676V598L-6 608L4 598V676M-16 676L-6 686L4 676" stroke="#EEEEEE"/>
<path d="M-16 768V782L-6 792L4 782V768M-16 768V690L-6 700L4 690V768M-16 768L-6 778L4 768" stroke="#EEEEEE"/>
<path d="M-16 860V874L-6 884L4 874V860M-16 860V782L-6 792L4 782V860M-16 860L-6 870L4 860" stroke="#EEEEEE"/>
<path d="M4 634V648L14 658L24 648V634M4 634V556L14 566L24 556V634M4 634L14 644L24 634" stroke="#EEEEEE"/>
<path d="M4 542V556L14 566L24 556V542M4 542V464L14 474L24 464V542M4 542L14 552L24 542" stroke="#EEEEEE"/>
<path d="M4 726V740L14 750L24 740V726M4 726V648L14 658L24 648V726M4 726L14 736L24 726" stroke="#EEEEEE"/>
<path d="M4 818V832L14 842L24 832V818M4 818V740L14 750L24 740V818M4 818L14 828L24 818" stroke="#EEEEEE"/>
<path d="M4 910V924L14 934L24 924V910M4 910V832L14 842L24 832V910M4 910L14 920L24 910" stroke="#EEEEEE"/>
<path d="M24 584V598L34 608L44 598V584M24 584V506L34 516L44 506V584M24 584L34 594L44 584" stroke="#EEEEEE"/>
<path d="M24 492V506L34 516L44 506V492M24 492V414L34 424L44 414V492M24 492L34 502L44 492" stroke="#EEEEEE"/>
<path d="M24 676V690L34 700L44 690V676M24 676V598L34 608L44 598V676M24 676L34 686L44 676" stroke="#EEEEEE"/>
<path d="M24 768V782L34 792L44 782V768M24 768V690L34 700L44 690V768M24 768L34 778L44 768" stroke="#EEEEEE"/>
<path d="M24 860V874L34 884L44 874V860M24 860V782L34 792L44 782V860M24 860L34 870L44 860" stroke="#EEEEEE"/>
<path d="M44 634V648L54 658L64 648V634M44 634V556L54 566L64 556V634M44 634L54 644L64 634" stroke="#EEEEEE"/>
<path d="M44 542V556L54 566L64 556V542M44 542V464L54 474L64 464V542M44 542L54 552L64 542" stroke="#EEEEEE"/>
<path d="M44 726V740L54 750L64 740V726M44 726V648L54 658L64 648V726M44 726L54 736L64 726" stroke="#EEEEEE"/>
<path d="M44 818V832L54 842L64 832V818M44 818V740L54 750L64 740V818M44 818L54 828L64 818" stroke="#EEEEEE"/>
<path d="M44 910V924L54 934L64 924V910M44 910V832L54 842L64 832V910M44 910L54 920L64 910" stroke="#EEEEEE"/>
<path d="M64 584V598L74 608L84 598V584M64 584V506L74 516L84 506V584M64 584L74 594L84 584" stroke="#EEEEEE"/>
<path d="M64 492V506L74 516L84 506V492M64 492V414L74 424L84 414V492M64 492L74 502L84 492" stroke="#EEEEEE"/>
<path d="M64 676V690L74 700L84 690V676M64 676V598L74 608L84 598V676M64 676L74 686L84 676" stroke="#EEEEEE"/>
<path d="M64 768V782L74 792L84 782V768M64 768V690L74 700L84 690V768M64 768L74 778L84 768" stroke="#EEEEEE"/>
<path d="M64 860V874L74 884L84 874V860M64 860V782L74 792L84 782V860M64 860L74 870L84 860" stroke="#EEEEEE"/>
<path d="M84 634V648L94 658L104 648V634M84 634V556L94 566L104 556V634M84 634L94 644L104 634" stroke="#EEEEEE"/>
<path d="M84 542V556L94 566L104 556V542M84 542V464L94 474L104 464V542M84 542L94 552L104 542" stroke="#EEEEEE"/>
<path d="M84 726V740L94 750L104 740V726M84 726V648L94 658L104 648V726M84 726L94 736L104 726" stroke="#EEEEEE"/>
<path d="M84 818V832L94 842L104 832V818M84 818V740L94 750L104 740V818M84 818L94 828L104 818" stroke="#EEEEEE"/>
<path d="M84 910V924L94 934L104 924V910M84 910V832L94 842L104 832V910M84 910L94 920L104 910" stroke="#EEEEEE"/>
<path d="M104 584V598L114 608L124 598V584M104 584V506L114 516L124 506V584M104 584L114 594L124 584" stroke="#EEEEEE"/>
<path d="M104 492V506L114 516L124 506V492M104 492V414L114 424L124 414V492M104 492L114 502L124 492" stroke="#EEEEEE"/>
<path d="M104 676V690L114 700L124 690V676M104 676V598L114 608L124 598V676M104 676L114 686L124 676" stroke="#EEEEEE"/>
<path d="M104 768V782L114 792L124 782V768M104 768V690L114 700L124 690V768M104 768L114 778L124 768" stroke="#EEEEEE"/>
<path d="M104 860V874L114 884L124 874V860M104 860V782L114 792L124 782V860M104 860L114 870L124 860" stroke="#EEEEEE"/>
<path d="M124 634V648L134 658L144 648V634M124 634V556L134 566L144 556V634M124 634L134 644L144 634" stroke="#EEEEEE"/>
<path d="M124 542V556L134 566L144 556V542M124 542V464L134 474L144 464V542M124 542L134 552L144 542" stroke="#EEEEEE"/>
<path d="M124 726V740L134 750L144 740V726M124 726V648L134 658L144 648V726M124 726L134 736L144 726" stroke="#EEEEEE"/>
<path d="M124 818V832L134 842L144 832V818M124 818V740L134 750L144 740V818M124 818L134 828L144 818" stroke="#EEEEEE"/>
<path d="M124 910V924L134 934L144 924V910M124 910V832L134 842L144 832V910M124 910L134 920L144 910" stroke="#EEEEEE"/>
<path d="M144 584V598L154 608L164 598V584M144 584V506L154 516L164 506V584M144 584L154 594L164 584" stroke="#EEEEEE"/>
<path d="M144 492V506L154 516L164 506V492M144 492V414L154 424L164 414V492M144 492L154 502L164 492" stroke="#EEEEEE"/>
<path d="M144 676V690L154 700L164 690V676M144 676V598L154 608L164 598V676M144 676L154 686L164 676" stroke="#EEEEEE"/>
<path d="M144 768V782L154 792L164 782V768M144 768V690L154 700L164 690V768M144 768L154 778L164 768" stroke="#EEEEEE"/>
<path d="M144 860V874L154 884L164 874V860M144 860V782L154 792L164 782V860M144 860L154 870L164 860" stroke="#EEEEEE"/>
<path d="M164 634V648L174 658L184 648V634M164 634V556L174 566L184 556V634M164 634L174 644L184 634" stroke="#EEEEEE"/>
<path d="M164 542V556L174 566L184 556V542M164 542V464L174 474L184 464V542M164 542L174 552L184 542" stroke="#EEEEEE"/>
<path d="M164 726V740L174 750L184 740V726M164 726V648L174 658L184 648V726M164 726L174 736L184 726" stroke="#EEEEEE"/>
<path d="M164 818V832L174 842L184 832V818M164 818V740L174 750L184 740V818M164 818L174 828L184 818" stroke="#EEEEEE"/>
<path d="M164 910V924L174 934L184 924V910M164 910V832L174 842L184 832V910M164 910L174 920L184 910" stroke="#EEEEEE"/>
<path d="M184 584V598L194 608L204 598V584M184 584V506L194 516L204 506V584M184 584L194 594L204 584" stroke="#EEEEEE"/>
<path d="M184 492V506L194 516L204 506V492M184 492V414L194 424L204 414V492M184 492L194 502L204 492" stroke="#EEEEEE"/>
<path d="M184 676V690L194 700L204 690V676M184 676V598L194 608L204 598V676M184 676L194 686L204 676" stroke="#EEEEEE"/>
<path d="M184 768V782L194 792L204 782V768M184 768V690L194 700L204 690V768M184 768L194 778L204 768" stroke="#EEEEEE"/>
<path d="M184 860V874L194 884L204 874V860M184 860V782L194 792L204 782V860M184 860L194 870L204 860" stroke="#EEEEEE"/>
<path d="M204 634V648L214 658L224 648V634M204 634V556L214 566L224 556V634M204 634L214 644L224 634" stroke="#EEEEEE"/>
<path d="M204 542V556L214 566L224 556V542M204 542V464L214 474L224 464V542M204 542L214 552L224 542" stroke="#EEEEEE"/>
<path d="M204 726V740L214 750L224 740V726M204 726V648L214 658L224 648V726M204 726L214 736L224 726" stroke="#EEEEEE"/>
<path d="M204 818V832L214 842L224 832V818M204 818V740L214 750L224 740V818M204 818L214 828L224 818" stroke="#EEEEEE"/>
<path d="M204 910V924L214 934L224 924V910M204 910V832L214 842L224 832V910M204 910L214 920L224 910" stroke="#EEEEEE"/>
<path d="M224 584V598L234 608L244 598V584M224 584V506L234 516L244 506V584M224 584L234 594L244 584" stroke="#EEEEEE"/>
<path d="M224 492V506L234 516L244 506V492M224 492V414L234 424L244 414V492M224 492L234 502L244 492" stroke="#EEEEEE"/>
<path d="M224 676V690L234 700L244 690V676M224 676V598L234 608L244 598V676M224 676L234 686L244 676" stroke="#EEEEEE"/>
<path d="M224 768V782L234 792L244 782V768M224 768V690L234 700L244 690V768M224 768L234 778L244 768" stroke="#EEEEEE"/>
<path d="M224 860V874L234 884L244 874V860M224 860V782L234 792L244 782V860M224 860L234 870L244 860" stroke="#EEEEEE"/>
<path d="M244 634V648L254 658L264 648V634M244 634V556L254 566L264 556V634M244 634L254 644L264 634" stroke="#EEEEEE"/>
<path d="M244 542V556L254 566L264 556V542M244 542V464L254 474L264 464V542M244 542L254 552L264 542" stroke="#EEEEEE"/>
<path d="M244 726V740L254 750L264 740V726M244 726V648L254 658L264 648V726M244 726L254 736L264 726" stroke="#EEEEEE"/>
<path d="M244 818V832L254 842L264 832V818M244 818V740L254 750L264 740V818M244 818L254 828L264 818" stroke="#EEEEEE"/>
<path d="M244 910V924L254 934L264 924V910M244 910V832L254 842L264 832V910M244 910L254 920L264 910" stroke="#EEEEEE"/>
<path d="M264 584V598L274 608L284 598V584M264 584V506L274 516L284 506V584M264 584L274 594L284 584" stroke="#EEEEEE"/>
<path d="M264 492V506L274 516L284 506V492M264 492V414L274 424L284 414V492M264 492L274 502L284 492" stroke="#EEEEEE"/>
<path d="M264 676V690L274 700L284 690V676M264 676V598L274 608L284 598V676M264 676L274 686L284 676" stroke="#EEEEEE"/>
<path d="M264 768V782L274 792L284 782V768M264 768V690L274 700L284 690V768M264 768L274 778L284 768" stroke="#EEEEEE"/>
<path d="M264 860V874L274 884L284 874V860M264 860V782L274 792L284 782V860M264 860L274 870L284 860" stroke="#EEEEEE"/>
<path d="M284 634V648L294 658L304 648V634M284 634V556L294 566L304 556V634M284 634L294 644L304 634" stroke="#EEEEEE"/>
<path d="M284 542V556L294 566L304 556V542M284 542V464L294 474L304 464V542M284 542L294 552L304 542" stroke="#EEEEEE"/>
<path d="M284 726V740L294 750L304 740V726M284 726V648L294 658L304 648V726M284 726L294 736L304 726" stroke="#EEEEEE"/>
<path d="M284 818V832L294 842L304 832V818M284 818V740L294 750L304 740V818M284 818L294 828L304 818" stroke="#EEEEEE"/>
<path d="M284 910V924L294 934L304 924V910M284 910V832L294 842L304 832V910M284 910L294 920L304 910" stroke="#EEEEEE"/>
<path d="M304 584V598L314 608L324 598V584M304 584V506L314 516L324 506V584M304 584L314 594L324 584" stroke="#EEEEEE"/>
<path d="M304 492V506L314 516L324 506V492M304 492V414L314 424L324 414V492M304 492L314 502L324 492" stroke="#EEEEEE"/>
<path d="M304 676V690L314 700L324 690V676M304 676V598L314 608L324 598V676M304 676L314 686L324 676" stroke="#EEEEEE"/>
<path d="M304 768V782L314 792L324 782V768M304 768V690L314 700L324 690V768M304 768L314 778L324 768" stroke="#EEEEEE"/>
<path d="M304 860V874L314 884L324 874V860M304 860V782L314 792L324 782V860M304 860L314 870L324 860" stroke="#EEEEEE"/>
<path d="M324 634V648L334 658L344 648V634M324 634V556L334 566L344 556V634M324 634L334 644L344 634" stroke="#EEEEEE"/>
<path d="M324 542V556L334 566L344 556V542M324 542V464L334 474L344 464V542M324 542L334 552L344 542" stroke="#EEEEEE"/>
<path d="M324 726V740L334 750L344 740V726M324 726V648L334 658L344 648V726M324 726L334 736L344 726" stroke="#EEEEEE"/>
<path d="M324 818V832L334 842L344 832V818M324 818V740L334 750L344 740V818M324 818L334 828L344 818" stroke="#EEEEEE"/>
<path d="M324 910V924L334 934L344 924V910M324 910V832L334 842L344 832V910M324 910L334 920L344 910" stroke="#EEEEEE"/>
<path d="M344 584V598L354 608L364 598V584M344 584V506L354 516L364 506V584M344 584L354 594L364 584" stroke="#EEEEEE"/>
<path d="M344 492V506L354 516L364 506V492M344 492V414L354 424L364 414V492M344 492L354 502L364 492" stroke="#EEEEEE"/>
<path d="M344 676V690L354 700L364 690V676M344 676V598L354 608L364 598V676M344 676L354 686L364 676" stroke="#EEEEEE"/>
<path d="M344 768V782L354 792L364 782V768M344 768V690L354 700L364 690V768M344 768L354 778L364 768" stroke="#EEEEEE"/>
<path d="M344 860V874L354 884L364 874V860M344 860V782L354 792L364 782V860M344 860L354 870L364 860" stroke="#EEEEEE"/>
<path d="M364 634V648L374 658L384 648V634M364 634V556L374 566L384 556V634M364 634L374 644L384 634" stroke="#EEEEEE"/>
<path d="M364 542V556L374 566L384 556V542M364 542V464L374 474L384 464V542M364 542L374 552L384 542" stroke="#EEEEEE"/>
<path d="M364 726V740L374 750L384 740V726M364 726V648L374 658L384 648V726M364 726L374 736L384 726" stroke="#EEEEEE"/>
<path d="M364 818V832L374 842L384 832V818M364 818V740L374 750L384 740V818M364 818L374 828L384 818" stroke="#EEEEEE"/>
<path d="M364 910V924L374 934L384 924V910M364 910V832L374 842L384 832V910M364 910L374 920L384 910" stroke="#EEEEEE"/>
<path d="M384 584V598L394 608L404 598V584M384 584V506L394 516L404 506V584M384 584L394 594L404 584" stroke="#EEEEEE"/>
<path d="M384 492V506L394 516L404 506V492M384 492V414L394 424L404 414V492M384 492L394 502L404 492" stroke="#EEEEEE"/>
<path d="M384 676V690L394 700L404 690V676M384 676V598L394 608L404 598V676M384 676L394 686L404 676" stroke="#EEEEEE"/>
<path d="M384 768V782L394 792L404 782V768M384 768V690L394 700L404 690V768M384 768L394 778L404 768" stroke="#EEEEEE"/>
<path d="M384 860V874L394 884L404 874V860M384 860V782L394 792L404 782V860M384 860L394 870L404 860" stroke="#EEEEEE"/>
<path d="M404 634V648L414 658L424 648V634M404 634V556L414 566L424 556V634M404 634L414 644L424 634" stroke="#EEEEEE"/>
<path d="M404 542V556L414 566L424 556V542M404 542V464L414 474L424 464V542M404 542L414 552L424 542" stroke="#EEEEEE"/>
<path d="M404 726V740L414 750L424 740V726M404 726V648L414 658L424 648V726M404 726L414 736L424 726" stroke="#EEEEEE"/>
<path d="M404 818V832L414 842L424 832V818M404 818V740L414 750L424 740V818M404 818L414 828L424 818" stroke="#EEEEEE"/>
<path d="M404 910V924L414 934L424 924V910M404 910V832L414 842L424 832V910M404 910L414 920L424 910" stroke="#EEEEEE"/>
<path d="M424 584V598L434 608L444 598V584M424 584V506L434 516L444 506V584M424 584L434 594L444 584" stroke="#EEEEEE"/>
<path d="M424 492V506L434 516L444 506V492M424 492V414L434 424L444 414V492M424 492L434 502L444 492" stroke="#EEEEEE"/>
<path d="M424 676V690L434 700L444 690V676M424 676V598L434 608L444 598V676M424 676L434 686L444 676" stroke="#EEEEEE"/>
<path d="M424 768V782L434 792L444 782V768M424 768V690L434 700L444 690V768M424 768L434 778L444 768" stroke="#EEEEEE"/>
<path d="M424 860V874L434 884L444 874V860M424 860V782L434 792L444 782V860M424 860L434 870L444 860" stroke="#EEEEEE"/>
<path d="M444 634V648L454 658L464 648V634M444 634V556L454 566L464 556V634M444 634L454 644L464 634" stroke="#EEEEEE"/>
<path d="M444 542V556L454 566L464 556V542M444 542V464L454 474L464 464V542M444 542L454 552L464 542" stroke="#EEEEEE"/>
<path d="M444 726V740L454 750L464 740V726M444 726V648L454 658L464 648V726M444 726L454 736L464 726" stroke="#EEEEEE"/>
<path d="M444 818V832L454 842L464 832V818M444 818V740L454 750L464 740V818M444 818L454 828L464 818" stroke="#EEEEEE"/>
<path d="M444 910V924L454 934L464 924V910M444 910V832L454 842L464 832V910M444 910L454 920L464 910" stroke="#EEEEEE"/>
<path d="M464 584V598L474 608L484 598V584M464 584V506L474 516L484 506V584M464 584L474 594L484 584" stroke="#EEEEEE"/>
<path d="M464 492V506L474 516L484 506V492M464 492V414L474 424L484 414V492M464 492L474 502L484 492" stroke="#EEEEEE"/>
<path d="M464 676V690L474 700L484 690V676M464 676V598L474 608L484 598V676M464 676L474 686L484 676" stroke="#EEEEEE"/>
<path d="M464 768V782L474 792L484 782V768M464 768V690L474 700L484 690V768M464 768L474 778L484 768" stroke="#EEEEEE"/>
<path d="M464 860V874L474 884L484 874V860M464 860V782L474 792L484 782V860M464 860L474 870L484 860" stroke="#EEEEEE"/>
<path d="M484 634V648L494 658L504 648V634M484 634V556L494 566L504 556V634M484 634L494 644L504 634" stroke="#EEEEEE"/>
<path d="M484 542V556L494 566L504 556V542M484 542V464L494 474L504 464V542M484 542L494 552L504 542" stroke="#EEEEEE"/>
<path d="M484 726V740L494 750L504 740V726M484 726V648L494 658L504 648V726M484 726L494 736L504 726" stroke="#EEEEEE"/>
<path d="M484 818V832L494 842L504 832V818M484 818V740L494 750L504 740V818M484 818L494 828L504 818" stroke="#EEEEEE"/>
<path d="M484 910V924L494 934L504 924V910M484 910V832L494 842L504 832V910M484 910L494 920L504 910" stroke="#EEEEEE"/>
<path d="M504 584V598L514 608L524 598V584M504 584V506L514 516L524 506V584M504 584L514 594L524 584" stroke="#EEEEEE"/>
<path d="M504 492V506L514 516L524 506V492M504 492V414L514 424L524 414V492M504 492L514 502L524 492" stroke="#EEEEEE"/>
<path d="M504 676V690L514 700L524 690V676M504 676V598L514 608L524 598V676M504 676L514 686L524 676" stroke="#EEEEEE"/>
<path d="M504 768V782L514 792L524 782V768M504 768V690L514 700L524 690V768M504 768L514 778L524 768" stroke="#EEEEEE"/>
<path d="M504 860V874L514 884L524 874V860M504 860V782L514 792L524 782V860M504 860L514 870L524 860" stroke="#EEEEEE"/>
<path d="M524 634V648L534 658L544 648V634M524 634V556L534 566L544 556V634M524 634L534 644L544 634" stroke="#EEEEEE"/>
<path d="M524 542V556L534 566L544 556V542M524 542V464L534 474L544 464V542M524 542L534 552L544 542" stroke="#EEEEEE"/>
<path d="M524 726V740L534 750L544 740V726M524 726V648L534 658L544 648V726M524 726L534 736L544 726" stroke="#EEEEEE"/>
<path d="M524 818V832L534 842L544 832V818M524 818V740L534 750L544 740V818M524 818L534 828L544 818" stroke="#EEEEEE"/>
<path d="M524 910V924L534 934L544 924V910M524 910V832L534 842L544 832V910M524 910L534 920L544 910" stroke="#EEEEEE"/>
<path d="M544 584V598L554 608L564 598V584M544 584V506L554 516L564 506V584M544 584L554 594L564 584" stroke="#EEEEEE"/>
<path d="M544 492V506L554 516L564 506V492M544 492V414L554 424L564 414V492M544 492L554 502L564 492" stroke="#EEEEEE"/>
<path d="M544 676V690L554 700L564 690V676M544 676V598L554 608L564 598V676M544 676L554 686L564 676" stroke="#EEEEEE"/>
<path d="M544 768V782L554 792L564 782V768M544 768V690L554 700L564 690V768M544 768L554 778L564 768" stroke="#EEEEEE"/>
<path d="M544 860V874L554 884L564 874V860M544 860V782L554 792L564 782V860M544 860L554 870L564 860" stroke="#EEEEEE"/>
<path d="M564 634V648L574 658L584 648V634M564 634V556L574 566L584 556V634M564 634L574 644L584 634" stroke="#EEEEEE"/>
<path d="M564 542V556L574 566L584 556V542M564 542V464L574 474L584 464V542M564 542L574 552L584 542" stroke="#EEEEEE"/>
<path d="M564 726V740L574 750L584 740V726M564 726V648L574 658L584 648V726M564 726L574 736L584 726" stroke="#EEEEEE"/>
<path d="M564 818V832L574 842L584 832V818M564 818V740L574 750L584 740V818M564 818L574 828L584 818" stroke="#EEEEEE"/>
<path d="M564 910V924L574 934L584 924V910M564 910V832L574 842L584 832V910M564 910L574 920L584 910" stroke="#EEEEEE"/>
<path d="M584 584V598L594 608L604 598V584M584 584V506L594 516L604 506V584M584 584L594 594L604 584" stroke="#EEEEEE"/>
<path d="M584 492V506L594 516L604 506V492M584 492V414L594 424L604 414V492M584 492L594 502L604 492" stroke="#EEEEEE"/>
<path d="M584 676V690L594 700L604 690V676M584 676V598L594 608L604 598V676M584 676L594 686L604 676" stroke="#EEEEEE"/>
<path d="M584 768V782L594 792L604 782V768M584 768V690L594 700L604 690V768M584 768L594 778L604 768" stroke="#EEEEEE"/>
<path d="M584 860V874L594 884L604 874V860M584 860V782L594 792L604 782V860M584 860L594 870L604 860" stroke="#EEEEEE"/>
<path d="M604 634V648L614 658L624 648V634M604 634V556L614 566L624 556V634M604 634L614 644L624 634" stroke="#EEEEEE"/>
<path d="M604 542V556L614 566L624 556V542M604 542V464L614 474L624 464V542M604 542L614 552L624 542" stroke="#EEEEEE"/>
<path d="M604 726V740L614 750L624 740V726M604 726V648L614 658L624 648V726M604 726L614 736L624 726" stroke="#EEEEEE"/>
<path d="M604 818V832L614 842L624 832V818M604 818V740L614 750L624 740V818M604 818L614 828L624 818" stroke="#EEEEEE"/>
<path d="M604 910V924L614 934L624 924V910M604 910V832L614 842L624 832V910M604 910L614 920L624 910" stroke="#EEEEEE"/>
<path d="M624 584V598L634 608L644 598V584M624 584V506L634 516L644 506V584M624 584L634 594L644 584" stroke="#EEEEEE"/>
<path d="M624 492V506L634 516L644 506V492M624 492V414L634 424L644 414V492M624 492L634 502L644 492" stroke="#EEEEEE"/>
<path d="M624 676V690L634 700L644 690V676M624 676V598L634 608L644 598V676M624 676L634 686L644 676" stroke="#EEEEEE"/>
<path d="M624 768V782L634 792L644 782V768M624 768V690L634 700L644 690V768M624 768L634 778L644 768" stroke="#EEEEEE"/>
<path d="M624 860V874L634 884L644 874V860M624 860V782L634 792L644 782V860M624 860L634 870L644 860" stroke="#EEEEEE"/>
<path d="M644 634V648L654 658L664 648V634M644 634V556L654 566L664 556V634M644 634L654 644L664 634" stroke="#EEEEEE"/>
<path d="M644 542V556L654 566L664 556V542M644 542V464L654 474L664 464V542M644 542L654 552L664 542" stroke="#EEEEEE"/>
<path d="M644 726V740L654 750L664 740V726M644 726V648L654 658L664 648V726M644 726L654 736L664 726" stroke="#EEEEEE"/>
<path d="M644 818V832L654 842L664 832V818M644 818V740L654 750L664 740V818M644 818L654 828L664 818" stroke="#EEEEEE"/>
<path d="M644 910V924L654 934L664 924V910M644 910V832L654 842L664 832V910M644 910L654 920L664 910" stroke="#EEEEEE"/>
<path d="M664 584V598L674 608L684 598V584M664 584V506L674 516L684 506V584M664 584L674 594L684 584" stroke="#EEEEEE"/>
<path d="M664 492V506L674 516L684 506V492M664 492V414L674 424L684 414V492M664 492L674 502L684 492" stroke="#EEEEEE"/>
<path d="M664 676V690L674 700L684 690V676M664 676V598L674 608L684 598V676M664 676L674 686L684 676" stroke="#EEEEEE"/>
<path d="M664 768V782L674 792L684 782V768M664 768V690L674 700L684 690V768M664 768L674 778L684 768" stroke="#EEEEEE"/>
<path d="M664 860V874L674 884L684 874V860M664 860V782L674 792L684 782V860M664 860L674 870L684 860" stroke="#EEEEEE"/>
<path d="M684 634V648L694 658L704 648V634M684 634V556L694 566L704 556V634M684 634L694 644L704 634" stroke="#EEEEEE"/>
<path d="M684 542V556L694 566L704 556V542M684 542V464L694 474L704 464V542M684 542L694 552L704 542" stroke="#EEEEEE"/>
<path d="M684 726V740L694 750L704 740V726M684 726V648L694 658L704 648V726M684 726L694 736L704 726" stroke="#EEEEEE"/>
<path d="M684 818V832L694 842L704 832V818M684 818V740L694 750L704 740V818M684 818L694 828L704 818" stroke="#EEEEEE"/>
<path d="M684 910V924L694 934L704 924V910M684 910V832L694 842L704 832V910M684 910L694 920L704 910" stroke="#EEEEEE"/>
<path d="M704 584V598L714 608L724 598V584M704 584V506L714 516L724 506V584M704 584L714 594L724 584" stroke="#EEEEEE"/>
<path d="M704 492V506L714 516L724 506V492M704 492V414L714 424L724 414V492M704 492L714 502L724 492" stroke="#EEEEEE"/>
<path d="M704 676V690L714 700L724 690V676M704 676V598L714 608L724 598V676M704 676L714 686L724 676" stroke="#EEEEEE"/>
<path d="M704 768V782L714 792L724 782V768M704 768V690L714 700L724 690V768M704 768L714 778L724 768" stroke="#EEEEEE"/>
<path d="M704 860V874L714 884L724 874V860M704 860V782L714 792L724 782V860M704 860L714 870L724 860" stroke="#EEEEEE"/>
<path d="M724 634V648L734 658L744 648V634M724 634V556L734 566L744 556V634M724 634L734 644L744 634" stroke="#EEEEEE"/>
<path d="M724 542V556L734 566L744 556V542M724 542V464L734 474L744 464V542M724 542L734 552L744 542" stroke="#EEEEEE"/>
<path d="M724 726V740L734 750L744 740V726M724 726V648L734 658L744 648V726M724 726L734 736L744 726" stroke="#EEEEEE"/>
<path d="M724 818V832L734 842L744 832V818M724 818V740L734 750L744 740V818M724 818L734 828L744 818" stroke="#EEEEEE"/>
<path d="M724 910V924L734 934L744 924V910M724 910V832L734 842L744 832V910M724 910L734 920L744 910" stroke="#EEEEEE"/>
<path d="M744 584V598L754 608L764 598V584M744 584V506L754 516L764 506V584M744 584L754 594L764 584" stroke="#EEEEEE"/>
<path d="M744 492V506L754 516L764 506V492M744 492V414L754 424L764 414V492M744 492L754 502L764 492" stroke="#EEEEEE"/>
<path d="M744 676V690L754 700L764 690V676M744 676V598L754 608L764 598V676M744 676L754 686L764 676" stroke="#EEEEEE"/>
<path d="M744 768V782L754 792L764 782V768M744 768V690L754 700L764 690V768M744 768L754 778L764 768" stroke="#EEEEEE"/>
<path d="M744 860V874L754 884L764 874V860M744 860V782L754 792L764 782V860M744 860L754 870L764 860" stroke="#EEEEEE"/>
<path d="M764 634V648L774 658L784 648V634M764 634V556L774 566L784 556V634M764 634L774 644L784 634" stroke="#EEEEEE"/>
<path d="M764 542V556L774 566L784 556V542M764 542V464L774 474L784 464V542M764 542L774 552L784 542" stroke="#EEEEEE"/>
<path d="M764 726V740L774 750L784 740V726M764 726V648L774 658L784 648V726M764 726L774 736L784 726" stroke="#EEEEEE"/>
<path d="M764 818V832L774 842L784 832V818M764 818V740L774 750L784 740V818M764 818L774 828L784 818" stroke="#EEEEEE"/>
<path d="M764 910V924L774 934L784 924V910M764 910V832L774 842L784 832V910M764 910L774 920L784 910" stroke="#EEEEEE"/>
<path d="M784 584V598L794 608L804 598V584M784 584V506L794 516L804 506V584M784 584L794 594L804 584" stroke="#EEEEEE"/>
<path d="M784 492V506L794 516L804 506V492M784 492V414L794 424L804 414V492M784 492L794 502L804 492" stroke="#EEEEEE"/>
<path d="M784 676V690L794 700L804 690V676M784 676V598L794 608L804 598V676M784 676L794 686L804 676" stroke="#EEEEEE"/>
<path d="M784 768V782L794 792L804 782V768M784 768V690L794 700L804 690V768M784 768L794 778L804 768" stroke="#EEEEEE"/>
<path d="M784 860V874L794 884L804 874V860M784 860V782L794 792L804 782V860M784 860L794 870L804 860" stroke="#EEEEEE"/>
<path d="M804 634V648L814 658L824 648V634M804 634V556L814 566L824 556V634M804 634L814 644L824 634" stroke="#EEEEEE"/>
<path d="M804 542V556L814 566L824 556V542M804 542V464L814 474L824 464V542M804 542L814 552L824 542" stroke="#EEEEEE"/>
<path d="M804 726V740L814 750L824 740V726M804 726V648L814 658L824 648V726M804 726L814 736L824 726" stroke="#EEEEEE"/>
<path d="M804 818V832L814 842L824 832V818M804 818V740L814 750L824 740V818M804 818L814 828L824 818" stroke="#EEEEEE"/>
<path d="M804 910V924L814 934L824 924V910M804 910V832L814 842L824 832V910M804 910L814 920L824 910" stroke="#EEEEEE"/>
<path d="M824 584V598L834 608L844 598V584M824 584V506L834 516L844 506V584M824 584L834 594L844 584" stroke="#EEEEEE"/>
<path d="M824 492V506L834 516L844 506V492M824 492V414L834 424L844 414V492M824 492L834 502L844 492" stroke="#EEEEEE"/>
<path d="M824 676V690L834 700L844 690V676M824 676V598L834 608L844 598V676M824 676L834 686L844 676" stroke="#EEEEEE"/>
<path d="M824 768V782L834 792L844 782V768M824 768V690L834 700L844 690V768M824 768L834 778L844 768" stroke="#EEEEEE"/>
<path d="M824 860V874L834 884L844 874V860M824 860V782L834 792L844 782V860M824 860L834 870L844 860" stroke="#EEEEEE"/>
<path d="M844 634V648L854 658L864 648V634M844 634V556L854 566L864 556V634M844 634L854 644L864 634" stroke="#EEEEEE"/>
<path d="M844 542V556L854 566L864 556V542M844 542V464L854 474L864 464V542M844 542L854 552L864 542" stroke="#EEEEEE"/>
<path d="M844 726V740L854 750L864 740V726M844 726V648L854 658L864 648V726M844 726L854 736L864 726" stroke="#EEEEEE"/>
<path d="M844 818V832L854 842L864 832V818M844 818V740L854 750L864 740V818M844 818L854 828L864 818" stroke="#EEEEEE"/>
<path d="M844 910V924L854 934L864 924V910M844 910V832L854 842L864 832V910M844 910L854 920L864 910" stroke="#EEEEEE"/>
<path d="M864 584V598L874 608L884 598V584M864 584V506L874 516L884 506V584M864 584L874 594L884 584" stroke="#EEEEEE"/>
<path d="M864 492V506L874 516L884 506V492M864 492V414L874 424L884 414V492M864 492L874 502L884 492" stroke="#EEEEEE"/>
<path d="M864 676V690L874 700L884 690V676M864 676V598L874 608L884 598V676M864 676L874 686L884 676" stroke="#EEEEEE"/>
<path d="M864 768V782L874 792L884 782V768M864 768V690L874 700L884 690V768M864 768L874 778L884 768" stroke="#EEEEEE"/>
<path d="M864 860V874L874 884L884 874V860M864 860V782L874 792L884 782V860M864 860L874 870L884 860" stroke="#EEEEEE"/>
<path d="M884 634V648L894 658L904 648V634M884 634V556L894 566L904 556V634M884 634L894 644L904 634" stroke="#EEEEEE"/>
<path d="M884 542V556L894 566L904 556V542M884 542V464L894 474L904 464V542M884 542L894 552L904 542" stroke="#EEEEEE"/>
<path d="M884 726V740L894 750L904 740V726M884 726V648L894 658L904 648V726M884 726L894 736L904 726" stroke="#EEEEEE"/>
<path d="M884 818V832L894 842L904 832V818M884 818V740L894 750L904 740V818M884 818L894 828L904 818" stroke="#EEEEEE"/>
<path d="M884 910V924L894 934L904 924V910M884 910V832L894 842L904 832V910M884 910L894 920L904 910" stroke="#EEEEEE"/>
<path d="M904 584V598L914 608L924 598V584M904 584V506L914 516L924 506V584M904 584L914 594L924 584" stroke="#EEEEEE"/>
<path d="M904 492V506L914 516L924 506V492M904 492V414L914 424L924 414V492M904 492L914 502L924 492" stroke="#EEEEEE"/>
<path d="M904 676V690L914 700L924 690V676M904 676V598L914 608L924 598V676M904 676L914 686L924 676" stroke="#EEEEEE"/>
<path d="M904 768V782L914 792L924 782V768M904 768V690L914 700L924 690V768M904 768L914 778L924 768" stroke="#EEEEEE"/>
<path d="M904 860V874L914 884L924 874V860M904 860V782L914 792L924 782V860M904 860L914 870L924 860" stroke="#EEEEEE"/>
<path d="M924 634V648L934 658L944 648V634M924 634V556L934 566L944 556V634M924 634L934 644L944 634" stroke="#EEEEEE"/>
<path d="M924 542V556L934 566L944 556V542M924 542V464L934 474L944 464V542M924 542L934 552L944 542" stroke="#EEEEEE"/>
<path d="M924 726V740L934 750L944 740V726M924 726V648L934 658L944 648V726M924 726L934 736L944 726" stroke="#EEEEEE"/>
<path d="M924 818V832L934 842L944 832V818M924 818V740L934 750L944 740V818M924 818L934 828L944 818" stroke="#EEEEEE"/>
<path d="M924 910V924L934 934L944 924V910M924 910V832L934 842L944 832V910M924 910L934 920L944 910" stroke="#EEEEEE"/>
<path d="M944 584V598L954 608L964 598V584M944 584V506L954 516L964 506V584M944 584L954 594L964 584" stroke="#EEEEEE"/>
<path d="M944 492V506L954 516L964 506V492M944 492V414L954 424L964 414V492M944 492L954 502L964 492" stroke="#EEEEEE"/>
<path d="M944 676V690L954 700L964 690V676M944 676V598L954 608L964 598V676M944 676L954 686L964 676" stroke="#EEEEEE"/>
<path d="M944 768V782L954 792L964 782V768M944 768V690L954 700L964 690V768M944 768L954 778L964 768" stroke="#EEEEEE"/>
<path d="M944 860V874L954 884L964 874V860M944 860V782L954 792L964 782V860M944 860L954 870L964 860" stroke="#EEEEEE"/>
<path d="M964 634V648L974 658L984 648V634M964 634V556L974 566L984 556V634M964 634L974 644L984 634" stroke="#EEEEEE"/>
<path d="M964 542V556L974 566L984 556V542M964 542V464L974 474L984 464V542M964 542L974 552L984 542" stroke="#EEEEEE"/>
<path d="M964 726V740L974 750L984 740V726M964 726V648L974 658L984 648V726M964 726L974 736L984 726" stroke="#EEEEEE"/>
<path d="M964 818V832L974 842L984 832V818M964 818V740L974 750L984 740V818M964 818L974 828L984 818" stroke="#EEEEEE"/>
<path d="M964 910V924L974 934L984 924V910M964 910V832L974 842L984 832V910M964 910L974 920L984 910" stroke="#EEEEEE"/>
<path d="M984 584V598L994 608L1004 598V584M984 584V506L994 516L1004 506V584M984 584L994 594L1004 584" stroke="#EEEEEE"/>
<path d="M984 492V506L994 516L1004 506V492M984 492V414L994 424L1004 414V492M984 492L994 502L1004 492" stroke="#EEEEEE"/>
<path d="M984 676V690L994 700L1004 690V676M984 676V598L994 608L1004 598V676M984 676L994 686L1004 676" stroke="#EEEEEE"/>
<path d="M984 768V782L994 792L1004 782V768M984 768V690L994 700L1004 690V768M984 768L994 778L1004 768" stroke="#EEEEEE"/>
<path d="M984 860V874L994 884L1004 874V860M984 860V782L994 792L1004 782V860M984 860L994 870L1004 860" stroke="#EEEEEE"/>
<path d="M1004 634V648L1014 658L1024 648V634M1004 634V556L1014 566L1024 556V634M1004 634L1014 644L1024 634" stroke="#EEEEEE"/>
<path d="M1004 542V556L1014 566L1024 556V542M1004 542V464L1014 474L1024 464V542M1004 542L1014 552L1024 542" stroke="#EEEEEE"/>
<path d="M1004 726V740L1014 750L1024 740V726M1004 726V648L1014 658L1024 648V726M1004 726L1014 736L1024 726" stroke="#EEEEEE"/>
<path d="M1004 818V832L1014 842L1024 832V818M1004 818V740L1014 750L1024 740V818M1004 818L1014 828L1024 818" stroke="#EEEEEE"/>
<path d="M1004 910V924L1014 934L1024 924V910M1004 910V832L1014 842L1024 832V910M1004 910L1014 920L1024 910" stroke="#EEEEEE"/>
<path d="M1024 584V598L1034 608L1044 598V584M1024 584V506L1034 516L1044 506V584M1024 584L1034 594L1044 584" stroke="#EEEEEE"/>
<path d="M1024 492V506L1034 516L1044 506V492M1024 492V414L1034 424L1044 414V492M1024 492L1034 502L1044 492" stroke="#EEEEEE"/>
<path d="M1024 676V690L1034 700L1044 690V676M1024 676V598L1034 608L1044 598V676M1024 676L1034 686L1044 676" stroke="#EEEEEE"/>
<path d="M1024 768V782L1034 792L1044 782V768M1024 768V690L1034 700L1044 690V768M1024 768L1034 778L1044 768" stroke="#EEEEEE"/>
<path d="M1024 860V874L1034 884L1044 874V860M1024 860V782L1034 792L1044 782V860M1024 860L1034 870L1044 860" stroke="#EEEEEE"/>
<path d="M1044 634V648L1054 658L1064 648V634M1044 634V556L1054 566L1064 556V634M1044 634L1054 644L1064 634" stroke="#EEEEEE"/>
<path d="M1044 542V556L1054 566L1064 556V542M1044 542V464L1054 474L1064 464V542M1044 542L1054 552L1064 542" stroke="#EEEEEE"/>
<path d="M1044 726V740L1054 750L1064 740V726M1044 726V648L1054 658L1064 648V726M1044 726L1054 736L1064 726" stroke="#EEEEEE"/>
<path d="M1044 818V832L1054 842L1064 832V818M1044 818V740L1054 750L1064 740V818M1044 818L1054 828L1064 818" stroke="#EEEEEE"/>
<path d="M1044 910V924L1054 934L1064 924V910M1044 910V832L1054 842L1064 832V910M1044 910L1054 920L1064 910" stroke="#EEEEEE"/>
<path d="M1064 584V598L1074 608L1084 598V584M1064 584V506L1074 516L1084 506V584M1064 584L1074 594L1084 584" stroke="#EEEEEE"/>
<path d="M1064 492V506L1074 516L1084 506V492M1064 492V414L1074 424L1084 414V492M1064 492L1074 502L1084 492" stroke="#EEEEEE"/>
<path d="M1064 676V690L1074 700L1084 690V676M1064 676V598L1074 608L1084 598V676M1064 676L1074 686L1084 676" stroke="#EEEEEE"/>
<path d="M1064 768V782L1074 792L1084 782V768M1064 768V690L1074 700L1084 690V768M1064 768L1074 778L1084 768" stroke="#EEEEEE"/>
<path d="M1064 860V874L1074 884L1084 874V860M1064 860V782L1074 792L1084 782V860M1064 860L1074 870L1084 860" stroke="#EEEEEE"/>
<path d="M1084 634V648L1094 658L1104 648V634M1084 634V556L1094 566L1104 556V634M1084 634L1094 644L1104 634" stroke="#EEEEEE"/>
<path d="M1084 542V556L1094 566L1104 556V542M1084 542V464L1094 474L1104 464V542M1084 542L1094 552L1104 542" stroke="#EEEEEE"/>
<path d="M1084 726V740L1094 750L1104 740V726M1084 726V648L1094 658L1104 648V726M1084 726L1094 736L1104 726" stroke="#EEEEEE"/>
<path d="M1084 818V832L1094 842L1104 832V818M1084 818V740L1094 750L1104 740V818M1084 818L1094 828L1104 818" stroke="#EEEEEE"/>
<path d="M1084 910V924L1094 934L1104 924V910M1084 910V832L1094 842L1104 832V910M1084 910L1094 920L1104 910" stroke="#EEEEEE"/>
<path d="M1104 584V598L1114 608L1124 598V584M1104 584V506L1114 516L1124 506V584M1104 584L1114 594L1124 584" stroke="#EEEEEE"/>
<path d="M1104 492V506L1114 516L1124 506V492M1104 492V414L1114 424L1124 414V492M1104 492L1114 502L1124 492" stroke="#EEEEEE"/>
<path d="M1104 676V690L1114 700L1124 690V676M1104 676V598L1114 608L1124 598V676M1104 676L1114 686L1124 676" stroke="#EEEEEE"/>
<path d="M1104 768V782L1114 792L1124 782V768M1104 768V690L1114 700L1124 690V768M1104 768L1114 778L1124 768" stroke="#EEEEEE"/>
<path d="M1104 860V874L1114 884L1124 874V860M1104 860V782L1114 792L1124 782V860M1104 860L1114 870L1124 860" stroke="#EEEEEE"/>
<path d="M1124 634V648L1134 658L1144 648V634M1124 634V556L1134 566L1144 556V634M1124 634L1134 644L1144 634" stroke="#EEEEEE"/>
<path d="M1124 542V556L1134 566L1144 556V542M1124 542V464L1134 474L1144 464V542M1124 542L1134 552L1144 542" stroke="#EEEEEE"/>
<path d="M1124 726V740L1134 750L1144 740V726M1124 726V648L1134 658L1144 648V726M1124 726L1134 736L1144 726" stroke="#EEEEEE"/>
<path d="M1124 818V832L1134 842L1144 832V818M1124 818V740L1134 750L1144 740V818M1124 818L1134 828L1144 818" stroke="#EEEEEE"/>
<path d="M1124 910V924L1134 934L1144 924V910M1124 910V832L1134 842L1144 832V910M1124 910L1134 920L1144 910" stroke="#EEEEEE"/>
<path d="M1144 584V598L1154 608L1164 598V584M1144 584V506L1154 516L1164 506V584M1144 584L1154 594L1164 584" stroke="#EEEEEE"/>
<path d="M1144 492V506L1154 516L1164 506V492M1144 492V414L1154 424L1164 414V492M1144 492L1154 502L1164 492" stroke="#EEEEEE"/>
<path d="M1144 676V690L1154 700L1164 690V676M1144 676V598L1154 608L1164 598V676M1144 676L1154 686L1164 676" stroke="#EEEEEE"/>
<path d="M1144 768V782L1154 792L1164 782V768M1144 768V690L1154 700L1164 690V768M1144 768L1154 778L1164 768" stroke="#EEEEEE"/>
<path d="M1144 860V874L1154 884L1164 874V860M1144 860V782L1154 792L1164 782V860M1144 860L1154 870L1164 860" stroke="#EEEEEE"/>
<path d="M1164 634V648L1174 658L1184 648V634M1164 634V556L1174 566L1184 556V634M1164 634L1174 644L1184 634" stroke="#EEEEEE"/>
<path d="M1164 542V556L1174 566L1184 556V542M1164 542V464L1174 474L1184 464V542M1164 542L1174 552L1184 542" stroke="#EEEEEE"/>
<path d="M1164 726V740L1174 750L1184 740V726M1164 726V648L1174 658L1184 648V726M1164 726L1174 736L1184 726" stroke="#EEEEEE"/>
<path d="M1164 818V832L1174 842L1184 832V818M1164 818V740L1174 750L1184 740V818M1164 818L1174 828L1184 818" stroke="#EEEEEE"/>
<path d="M1164 910V924L1174 934L1184 924V910M1164 910V832L1174 842L1184 832V910M1164 910L1174 920L1184 910" stroke="#EEEEEE"/>
<path d="M1184 584V598L1194 608L1204 598V584M1184 584V506L1194 516L1204 506V584M1184 584L1194 594L1204 584" stroke="#EEEEEE"/>
<path d="M1184 492V506L1194 516L1204 506V492M1184 492V414L1194 424L1204 414V492M1184 492L1194 502L1204 492" stroke="#EEEEEE"/>
<path d="M1184 676V690L1194 700L1204 690V676M1184 676V598L1194 608L1204 598V676M1184 676L1194 686L1204 676" stroke="#EEEEEE"/>
<path d="M1184 768V782L1194 792L1204 782V768M1184 768V690L1194 700L1204 690V768M1184 768L1194 778L1204 768" stroke="#EEEEEE"/>
<path d="M1184 860V874L1194 884L1204 874V860M1184 860V782L1194 792L1204 782V860M1184 860L1194 870L1204 860" stroke="#EEEEEE"/>
<path d="M1204 634V648L1214 658L1224 648V634M1204 634V556L1214 566L1224 556V634M1204 634L1214 644L1224 634" stroke="#EEEEEE"/>
<path d="M1204 542V556L1214 566L1224 556V542M1204 542V464L1214 474L1224 464V542M1204 542L1214 552L1224 542" stroke="#EEEEEE"/>
<path d="M1204 726V740L1214 750L1224 740V726M1204 726V648L1214 658L1224 648V726M1204 726L1214 736L1224 726" stroke="#EEEEEE"/>
<path d="M1204 818V832L1214 842L1224 832V818M1204 818V740L1214 750L1224 740V818M1204 818L1214 828L1224 818" stroke="#EEEEEE"/>
<path d="M1204 910V924L1214 934L1224 924V910M1204 910V832L1214 842L1224 832V910M1204 910L1214 920L1224 910" stroke="#EEEEEE"/>
<path d="M1224 584V598L1234 608L1244 598V584M1224 584V506L1234 516L1244 506V584M1224 584L1234 594L1244 584" stroke="#EEEEEE"/>
<path d="M1224 492V506L1234 516L1244 506V492M1224 492V414L1234 424L1244 414V492M1224 492L1234 502L1244 492" stroke="#EEEEEE"/>
<path d="M1224 676V690L1234 700L1244 690V676M1224 676V598L1234 608L1244 598V676M1224 676L1234 686L1244 676" stroke="#EEEEEE"/>
<path d="M1224 768V782L1234 792L1244 782V768M1224 768V690L1234 700L1244 690V768M1224 768L1234 778L1244 768" stroke="#EEEEEE"/>
<path d="M1224 860V874L1234 884L1244 874V860M1224 860V782L1234 792L1244 782V860M1224 860L1234 870L1244 860" stroke="#EEEEEE"/>
<path d="M1244 634V648L1254 658L1264 648V634M1244 634V556L1254 566L1264 556V634M1244 634L1254 644L1264 634" stroke="#EEEEEE"/>
<path d="M1244 542V556L1254 566L1264 556V542M1244 542V464L1254 474L1264 464V542M1244 542L1254 552L1264 542" stroke="#EEEEEE"/>
<path d="M1244 726V740L1254 750L1264 740V726M1244 726V648L1254 658L1264 648V726M1244 726L1254 736L1264 726" stroke="#EEEEEE"/>
<path d="M1244 818V832L1254 842L1264 832V818M1244 818V740L1254 750L1264 740V818M1244 818L1254 828L1264 818" stroke="#EEEEEE"/>
<path d="M1244 910V924L1254 934L1264 924V910M1244 910V832L1254 842L1264 832V910M1244 910L1254 920L1264 910" stroke="#EEEEEE"/>
<path d="M1264 584V598L1274 608L1284 598V584M1264 584V506L1274 516L1284 506V584M1264 584L1274 594L1284 584" stroke="#EEEEEE"/>
<path d="M1264 492V506L1274 516L1284 506V492M1264 492V414L1274 424L1284 414V492M1264 492L1274 502L1284 492" stroke="#EEEEEE"/>
<path d="M1264 676V690L1274 700L1284 690V676M1264 676V598L1274 608L1284 598V676M1264 676L1274 686L1284 676" stroke="#EEEEEE"/>
<path d="M1264 768V782L1274 792L1284 782V768M1264 768V690L1274 700L1284 690V768M1264 768L1274 778L1284 768" stroke="#EEEEEE"/>
<path d="M1264 860V874L1274 884L1284 874V860M1264 860V782L1274 792L1284 782V860M1264 860L1274 870L1284 860" stroke="#EEEEEE"/>
<path d="M1284 634V648L1294 658L1304 648V634M1284 634V556L1294 566L1304 556V634M1284 634L1294 644L1304 634" stroke="#EEEEEE"/>
<path d="M1284 542V556L1294 566L1304 556V542M1284 542V464L1294 474L1304 464V542M1284 542L1294 552L1304 542" stroke="#EEEEEE"/>
<path d="M1284 726V740L1294 750L1304 740V726M1284 726V648L1294 658L1304 648V726M1284 726L1294 736L1304 726" stroke="#EEEEEE"/>
<path d="M1284 818V832L1294 842L1304 832V818M1284 818V740L1294 750L1304 740V818M1284 818L1294 828L1304 818" stroke="#EEEEEE"/>
<path d="M1284 910V924L1294 934L1304 924V910M1284 910V832L1294 842L1304 832V910M1284 910L1294 920L1304 910" stroke="#EEEEEE"/>
<path d="M1304 584V598L1314 608L1324 598V584M1304 584V506L1314 516L1324 506V584M1304 584L1314 594L1324 584" stroke="#EEEEEE"/>
<path d="M1304 492V506L1314 516L1324 506V492M1304 492V414L1314 424L1324 414V492M1304 492L1314 502L1324 492" stroke="#EEEEEE"/>
<path d="M1304 676V690L1314 700L1324 690V676M1304 676V598L1314 608L1324 598V676M1304 676L1314 686L1324 676" stroke="#EEEEEE"/>
<path d="M1304 768V782L1314 792L1324 782V768M1304 768V690L1314 700L1324 690V768M1304 768L1314 778L1324 768" stroke="#EEEEEE"/>
<path d="M1304 860V874L1314 884L1324 874V860M1304 860V782L1314 792L1324 782V860M1304 860L1314 870L1324 860" stroke="#EEEEEE"/>
<path d="M1324 634V648L1334 658L1344 648V634M1324 634V556L1334 566L1344 556V634M1324 634L1334 644L1344 634" stroke="#EEEEEE"/>
<path d="M1324 542V556L1334 566L1344 556V542M1324 542V464L1334 474L1344 464V542M1324 542L1334 552L1344 542" stroke="#EEEEEE"/>
<path d="M1324 726V740L1334 750L1344 740V726M1324 726V648L1334 658L1344 648V726M1324 726L1334 736L1344 726" stroke="#EEEEEE"/>
<path d="M1324 818V832L1334 842L1344 832V818M1324 818V740L1334 750L1344 740V818M1324 818L1334 828L1344 818" stroke="#EEEEEE"/>
<path d="M1324 910V924L1334 934L1344 924V910M1324 910V832L1334 842L1344 832V910M1324 910L1334 920L1344 910" stroke="#EEEEEE"/>
<path d="M1344 584V598L1354 608L1364 598V584M1344 584V506L1354 516L1364 506V584M1344 584L1354 594L1364 584" stroke="#EEEEEE"/>
<path d="M1344 492V506L1354 516L1364 506V492M1344 492V414L1354 424L1364 414V492M1344 492L1354 502L1364 492" stroke="#EEEEEE"/>
<path d="M1344 676V690L1354 700L1364 690V676M1344 676V598L1354 608L1364 598V676M1344 676L1354 686L1364 676" stroke="#EEEEEE"/>
<path d="M1344 768V782L1354 792L1364 782V768M1344 768V690L1354 700L1364 690V768M1344 768L1354 778L1364 768" stroke="#EEEEEE"/>
<path d="M1344 860V874L1354 884L1364 874V860M1344 860V782L1354 792L1364 782V860M1344 860L1354 870L1364 860" stroke="#EEEEEE"/>
<path d="M1364 634V648L1374 658L1384 648V634M1364 634V556L1374 566L1384 556V634M1364 634L1374 644L1384 634" stroke="#EEEEEE"/>
<path d="M1364 542V556L1374 566L1384 556V542M1364 542V464L1374 474L1384 464V542M1364 542L1374 552L1384 542" stroke="#EEEEEE"/>
<path d="M1364 726V740L1374 750L1384 740V726M1364 726V648L1374 658L1384 648V726M1364 726L1374 736L1384 726" stroke="#EEEEEE"/>
<path d="M1364 818V832L1374 842L1384 832V818M1364 818V740L1374 750L1384 740V818M1364 818L1374 828L1384 818" stroke="#EEEEEE"/>
<path d="M1364 910V924L1374 934L1384 924V910M1364 910V832L1374 842L1384 832V910M1364 910L1374 920L1384 910" stroke="#EEEEEE"/>
<path d="M1384 584V598L1394 608L1404 598V584M1384 584V506L1394 516L1404 506V584M1384 584L1394 594L1404 584" stroke="#EEEEEE"/>
<path d="M1384 492V506L1394 516L1404 506V492M1384 492V414L1394 424L1404 414V492M1384 492L1394 502L1404 492" stroke="#EEEEEE"/>
<path d="M1384 676V690L1394 700L1404 690V676M1384 676V598L1394 608L1404 598V676M1384 676L1394 686L1404 676" stroke="#EEEEEE"/>
<path d="M1384 768V782L1394 792L1404 782V768M1384 768V690L1394 700L1404 690V768M1384 768L1394 778L1404 768" stroke="#EEEEEE"/>
<path d="M1384 860V874L1394 884L1404 874V860M1384 860V782L1394 792L1404 782V860M1384 860L1394 870L1404 860" stroke="#EEEEEE"/>
<path d="M1404 634V648L1414 658L1424 648V634M1404 634V556L1414 566L1424 556V634M1404 634L1414 644L1424 634" stroke="#EEEEEE"/>
<path d="M1404 542V556L1414 566L1424 556V542M1404 542V464L1414 474L1424 464V542M1404 542L1414 552L1424 542" stroke="#EEEEEE"/>
<path d="M1404 726V740L1414 750L1424 740V726M1404 726V648L1414 658L1424 648V726M1404 726L1414 736L1424 726" stroke="#EEEEEE"/>
<path d="M1404 818V832L1414 842L1424 832V818M1404 818V740L1414 750L1424 740V818M1404 818L1414 828L1424 818" stroke="#EEEEEE"/>
<path d="M1404 910V924L1414 934L1424 924V910M1404 910V832L1414 842L1424 832V910M1404 910L1414 920L1424 910" stroke="#EEEEEE"/>
<path d="M1424 584V598L1434 608L1444 598V584M1424 584V506L1434 516L1444 506V584M1424 584L1434 594L1444 584" stroke="#EEEEEE"/>
<path d="M1424 492V506L1434 516L1444 506V492M1424 492V414L1434 424L1444 414V492M1424 492L1434 502L1444 492" stroke="#EEEEEE"/>
<path d="M1424 676V690L1434 700L1444 690V676M1424 676V598L1434 608L1444 598V676M1424 676L1434 686L1444 676" stroke="#EEEEEE"/>
<path d="M1424 768V782L1434 792L1444 782V768M1424 768V690L1434 700L1444 690V768M1424 768L1434 778L1444 768" stroke="#EEEEEE"/>
<path d="M1424 860V874L1434 884L1444 874V860M1424 860V782L1434 792L1444 782V860M1424 860L1434 870L1444 860" stroke="#EEEEEE"/>
</g>
<defs>
<clipPath id="clip0_462_150975">
<rect width="1428" height="921" fill="white"/>
</clipPath>
</defs>
</svg>
