<svg width="70" height="70" viewBox="0 0 70 70" fill="none" xmlns="http://www.w3.org/2000/svg">
<rect x="6" y="11" width="46" height="8" fill="white"/>
<rect x="32.002" y="11.0003" width="47" height="8" transform="rotate(90.0023 32.002 11.0003)" fill="white"/>
<path d="M40.25 36.77H47.31C52.07 36.77 54.26 34.69 54.26 31.3C54.26 27.91 51.03 26.12 47.31 26.12H40.25V35.2L40.25 19.25H48.59C53.03 19.25 56.4133 20.3467 58.74 22.54C59.9199 23.6956 60.8418 25.0879 61.445 26.6253C62.0483 28.1627 62.3192 29.8104 62.24 31.46C62.2796 33.6349 61.7413 35.7813 60.68 37.68C59.5958 39.5347 57.984 41.0246 56.05 41.96C53.7214 43.0618 51.165 43.5964 48.59 43.52H40.25V36.77Z" fill="white"/>
<rect x="32.25" y="19.25" width="8" height="39" fill="white"/>
</svg>
