<svg width="74" height="74" viewBox="0 0 74 74" fill="none" xmlns="http://www.w3.org/2000/svg">
<rect x="6" y="14" width="46" height="6" fill="white"/>
<rect x="32.0013" y="20.0002" width="40.25" height="6" transform="rotate(90.0023 32.0013 20.0002)" fill="white"/>
<rect x="38.7502" y="20.75" width="20" height="5" fill="white" stroke="white"/>
<rect x="38.7502" y="35.75" width="20" height="5" fill="white" stroke="white"/>
<rect x="37.7512" y="20.7502" width="39" height="4.99963" transform="rotate(90.0023 37.7512 20.7502)" fill="white" stroke="white"/>
<mask id="path-6-inside-1_49_22" fill="white">
<path d="M58.7502 41.25C61.2698 41.25 63.6862 40.1438 65.4678 38.1746C67.2494 36.2055 68.2502 33.5348 68.2502 30.75C68.2502 27.9652 67.2494 25.2945 65.4678 23.3254C63.6862 21.3562 61.2698 20.25 58.7502 20.25L58.7502 26.2463C59.8309 26.2463 60.8674 26.7208 61.6316 27.5654C62.3957 28.41 62.825 29.5555 62.825 30.75C62.825 31.9445 62.3957 33.09 61.6316 33.9346C60.8674 34.7792 59.8309 35.2537 58.7502 35.2537V41.25Z"/>
</mask>
<path d="M58.7502 41.25C61.2698 41.25 63.6862 40.1438 65.4678 38.1746C67.2494 36.2055 68.2502 33.5348 68.2502 30.75C68.2502 27.9652 67.2494 25.2945 65.4678 23.3254C63.6862 21.3562 61.2698 20.25 58.7502 20.25L58.7502 26.2463C59.8309 26.2463 60.8674 26.7208 61.6316 27.5654C62.3957 28.41 62.825 29.5555 62.825 30.75C62.825 31.9445 62.3957 33.09 61.6316 33.9346C60.8674 34.7792 59.8309 35.2537 58.7502 35.2537V41.25Z" stroke="white" stroke-width="12" mask="url(#path-6-inside-1_49_22)"/>
</svg>
