<svg width="122" height="76" viewBox="0 0 122 76" fill="none" xmlns="http://www.w3.org/2000/svg">
<g clip-path="url(#clip0_467_16538)">
<path d="M0 0.129859L0.325542 0.0735312C0.49539 0.0453672 19.1928 0.0172032 41.8534 0.00312127C78.3283 -0.0109607 83.1123 0.0172033 83.2963 0.200269C83.4803 0.383335 83.5086 1.28458 83.5086 6.53716C83.5086 9.90275 83.5369 12.7191 83.5794 12.8036C83.6219 12.8881 83.5086 12.9726 83.3388 13.0149C83.1548 13.0571 75.4833 13.0853 49.539 13.0853V74.4827H34.2527L34.1395 74.1729C34.0828 73.9898 34.0545 60.3162 34.0828 43.784C34.1253 18.9715 34.097 13.6908 33.9413 13.5641C33.8139 13.4373 29.8083 13.3669 19.2494 13.2965C11.2666 13.2543 3.73666 13.1839 2.50526 13.1416C1.28801 13.1134 0.21231 13.0571 0.14154 13.0149C0.056616 12.9726 0 10.6632 0 0.129859Z" fill="white"/>
<path fill-rule="evenodd" clip-rule="evenodd" d="M97.4686 15.0713C108.863 15.1136 109.712 15.1276 110.703 15.3811C111.283 15.536 112.274 15.8881 112.896 16.1979C113.519 16.4936 114.538 17.1132 115.161 17.5779C115.784 18.0426 116.633 18.789 117.058 19.2537C117.482 19.7043 118.133 20.521 118.516 21.0702C118.912 21.6054 119.506 22.6052 119.846 23.2811C120.186 23.9711 120.667 25.1118 120.908 25.8159C121.148 26.534 121.474 27.7592 121.63 28.5337C121.771 29.3082 121.941 30.6319 121.983 31.4909C122.026 32.3499 121.983 33.9271 121.898 35.0114C121.799 36.0957 121.601 37.4898 121.46 38.1094C121.304 38.729 121.035 39.6725 120.851 40.2217C120.653 40.7709 120.356 41.5173 120.186 41.9116C120.016 42.2918 119.634 43.024 119.337 43.531C119.039 44.0379 118.445 44.8688 118.034 45.3757C117.624 45.8827 116.845 46.6994 116.293 47.1782C115.741 47.6711 114.977 48.2766 114.595 48.5442C114.199 48.7976 113.406 49.2342 112.826 49.5017C112.245 49.7834 111.255 50.1213 110.632 50.2762C109.74 50.4875 108.707 50.572 105.749 50.6424C103.682 50.6987 101.205 50.7269 100.229 50.7269C99.252 50.7128 96.2655 50.7691 93.5763 50.8536C90.887 50.9381 84.4186 51.0507 79.1816 51.1071C73.9588 51.1634 69.6277 51.262 69.5569 51.3183C69.5003 51.3887 69.4153 57.0638 69.3021 76.4124L51.5388 76.4828V15.0854L68.4246 15.0432C77.6954 15.0291 90.7738 15.0432 97.4686 15.0713V15.0713ZM68.9907 28.5478C68.8775 28.8435 68.8492 30.2094 68.9058 33.4624C68.9483 35.9408 69.0332 37.9968 69.104 38.039C69.1606 38.0813 76.2659 38.1094 84.8998 38.1094C100.441 38.1094 100.582 38.1094 101.219 37.8137C101.573 37.6588 102.111 37.3067 102.423 37.0251C102.734 36.7576 103.187 36.1239 103.442 35.631C103.725 35.0677 103.951 34.3073 104.05 33.6032C104.149 32.9554 104.178 32.1105 104.121 31.6317C104.064 31.167 103.866 30.4911 103.682 30.1249C103.498 29.7447 103.13 29.2941 102.89 29.111C102.635 28.928 102.21 28.6745 101.97 28.5478C101.715 28.421 101.064 28.2239 100.512 28.1112C99.6625 27.9282 97.3554 27.9 84.6309 27.9141C76.4357 27.9141 69.5993 27.9704 69.4437 28.0267C69.288 28.0831 69.0898 28.3225 68.9907 28.5478V28.5478Z" fill="white"/>
<path d="M71.8314 36.1378C71.52 36.1661 70.9539 36.1661 70.5575 36.1378C70.1612 36.1095 70.416 36.0954 71.1237 36.0954C71.8314 36.0954 72.1428 36.1095 71.8314 36.1378Z" fill="white"/>
<path d="M79.4746 36.1378C79.0075 36.1661 78.2715 36.1661 77.8469 36.1378C77.4222 36.1095 77.8044 36.0954 78.6961 36.0954C79.5878 36.0954 79.9417 36.1095 79.4746 36.1378Z" fill="white"/>
</g>
<defs>
<clipPath id="clip0_467_16538">
<rect width="122" height="76" fill="white"/>
</clipPath>
</defs>
</svg>
